<svg width="685" height="682" viewBox="0 0 685 682" fill="none" xmlns="http://www.w3.org/2000/svg">
<path d="M412.032 637.215C543.473 637.215 650.026 574.008 650.026 496.039C650.026 418.069 543.473 354.863 412.032 354.863C280.591 354.863 174.038 418.069 174.038 496.039C174.038 574.008 280.591 637.215 412.032 637.215Z" fill="#F5F5F5"/>
<path d="M279.868 573.138L542.239 421.71C543.179 421.234 544.217 420.986 545.271 420.986C546.324 420.986 547.363 421.234 548.302 421.71L621.708 464.152C622.075 464.275 622.393 464.511 622.619 464.825C622.845 465.139 622.966 465.515 622.966 465.902C622.966 466.289 622.845 466.666 622.619 466.98C622.393 467.294 622.075 467.529 621.708 467.652L359.282 619.039C358.342 619.515 357.304 619.763 356.25 619.763C355.197 619.763 354.159 619.515 353.219 619.039L279.868 576.611C279.511 576.481 279.203 576.245 278.985 575.935C278.767 575.624 278.65 575.254 278.65 574.874C278.65 574.495 278.767 574.124 278.985 573.814C279.203 573.503 279.511 573.267 279.868 573.138Z" fill="#E0E0E0"/>
<path d="M279.868 573.138L542.239 421.71C543.179 421.234 544.217 420.986 545.271 420.986C546.324 420.986 547.363 421.234 548.302 421.71L621.708 464.152C622.075 464.275 622.393 464.511 622.619 464.825C622.845 465.139 622.966 465.515 622.966 465.902C622.966 466.289 622.845 466.666 622.619 466.98C622.393 467.294 622.075 467.529 621.708 467.652L359.282 619.039C358.342 619.515 357.304 619.763 356.25 619.763C355.197 619.763 354.159 619.515 353.219 619.039L279.868 576.611C279.511 576.481 279.203 576.245 278.985 575.935C278.767 575.624 278.65 575.254 278.65 574.874C278.65 574.495 278.767 574.124 278.985 573.814C279.203 573.503 279.511 573.267 279.868 573.138Z" fill="#E0E0E0"/>
<path d="M587.823 412.629L576.593 406.152C576.593 406.152 573.837 382.12 575.683 363.517C578.246 337.335 595.141 305.902 615.287 313.289C635.433 320.675 606.041 347.311 599.564 369.497C593.087 391.683 587.823 412.629 587.823 412.629Z" fill="#A26769"/>
<path opacity="0.15" d="M587.823 412.629L576.593 406.152C576.593 406.152 573.837 382.12 575.683 363.517C578.246 337.335 595.141 305.902 615.287 313.289C635.433 320.675 606.041 347.311 599.564 369.497C593.087 391.683 587.823 412.629 587.823 412.629Z" fill="black"/>
<path d="M581.912 409.9C582.002 409.898 582.09 409.879 582.173 409.842C582.255 409.806 582.329 409.753 582.39 409.688C582.452 409.622 582.5 409.545 582.531 409.461C582.563 409.377 582.577 409.287 582.573 409.197C580.603 351.101 609.527 321.874 609.816 321.584C609.943 321.455 610.013 321.282 610.013 321.102C610.013 320.921 609.943 320.748 609.816 320.62C609.69 320.494 609.519 320.424 609.341 320.424C609.163 320.424 608.992 320.494 608.866 320.62C608.562 320.909 579.225 350.55 581.209 409.252C581.213 409.341 581.234 409.428 581.271 409.509C581.308 409.589 581.361 409.662 581.426 409.722C581.491 409.782 581.568 409.829 581.651 409.859C581.735 409.89 581.823 409.904 581.912 409.9Z" fill="white"/>
<path d="M594.865 416.666L586.886 412.064C586.886 412.064 585.508 395.528 593.611 375.547C600.653 358.101 618.112 343.632 626.904 346.677C635.695 349.723 635.461 355.951 631.175 362.483C626.89 369.015 600.846 384.586 594.865 416.666Z" fill="#A26769"/>
<path d="M590.662 414.916C590.841 414.916 591.013 414.845 591.14 414.718C591.266 414.592 591.337 414.42 591.337 414.241C591.186 377.462 625.746 352.658 626.022 352.424C626.168 352.319 626.268 352.16 626.299 351.982C626.33 351.804 626.289 351.622 626.187 351.473C626.082 351.326 625.923 351.227 625.745 351.196C625.568 351.165 625.385 351.205 625.236 351.308C624.892 351.569 589.822 376.801 589.987 414.241C589.987 414.42 590.058 414.592 590.185 414.718C590.311 414.845 590.483 414.916 590.662 414.916Z" fill="white"/>
<path d="M414.568 286.073H407.471V371.509C407.5 371.82 407.61 372.118 407.792 372.372C407.974 372.626 408.219 372.828 408.504 372.956C409.283 373.355 410.145 373.563 411.019 373.563C411.894 373.563 412.756 373.355 413.534 372.956C413.819 372.828 414.065 372.626 414.247 372.372C414.428 372.118 414.539 371.82 414.568 371.509V286.073Z" fill="#A26769"/>
<path d="M418.784 281.953C418.787 283.491 418.333 284.996 417.48 286.276C416.627 287.556 415.414 288.554 413.993 289.144C412.572 289.734 411.008 289.889 409.499 289.59C407.991 289.29 406.604 288.55 405.517 287.462C404.429 286.374 403.688 284.988 403.389 283.479C403.09 281.971 403.245 280.407 403.835 278.986C404.425 277.565 405.423 276.352 406.703 275.499C407.983 274.646 409.488 274.192 411.026 274.195C413.084 274.195 415.057 275.012 416.512 276.467C417.967 277.922 418.784 279.895 418.784 281.953Z" fill="#A26769"/>
<path opacity="0.15" d="M418.66 283.345C417.791 284.626 416.503 285.565 415.018 286.003C413.532 286.44 411.941 286.348 410.516 285.742C406.189 283.951 404.894 277.212 408.477 274.622C407.183 275.068 406.03 275.848 405.134 276.883C404.238 277.918 403.632 279.171 403.376 280.516C403.12 281.86 403.224 283.249 403.677 284.54C404.13 285.832 404.915 286.981 405.955 287.872C406.994 288.762 408.251 289.362 409.597 289.611C410.942 289.86 412.33 289.749 413.62 289.29C414.909 288.831 416.054 288.039 416.939 286.995C417.824 285.951 418.418 284.692 418.66 283.345Z" fill="black"/>
<path d="M315.062 368.684C299.27 368.684 290.052 362.414 289.9 362.304C289.663 362.135 289.503 361.88 289.454 361.593C289.405 361.307 289.471 361.012 289.638 360.774C289.721 360.656 289.826 360.555 289.948 360.477C290.07 360.4 290.206 360.347 290.348 360.323C290.49 360.299 290.636 360.303 290.777 360.335C290.918 360.368 291.05 360.428 291.168 360.513C291.402 360.678 315.338 376.828 352.558 355.345C390.122 333.642 409.938 291.819 410.13 291.392C410.263 291.144 410.485 290.956 410.752 290.867C411.019 290.777 411.31 290.793 411.565 290.911C411.82 291.029 412.021 291.24 412.126 291.501C412.231 291.762 412.232 292.054 412.129 292.315C411.936 292.743 391.844 335.199 353.646 357.247C338.461 366.011 325.342 368.684 315.062 368.684Z" fill="#455A64"/>
<path d="M294.048 355.814H286.937V441.25C286.965 441.563 287.075 441.863 287.257 442.119C287.438 442.376 287.685 442.58 287.971 442.71C288.749 443.109 289.611 443.317 290.486 443.317C291.36 443.317 292.222 443.109 293 442.71C293.287 442.58 293.535 442.376 293.719 442.12C293.903 441.863 294.016 441.563 294.048 441.25V355.814Z" fill="#A26769"/>
<path d="M298.251 351.693C298.251 353.231 297.794 354.734 296.94 356.013C296.085 357.291 294.871 358.287 293.45 358.875C292.029 359.463 290.465 359.616 288.957 359.315C287.449 359.014 286.065 358.272 284.978 357.184C283.892 356.096 283.153 354.71 282.854 353.201C282.556 351.693 282.712 350.13 283.302 348.71C283.893 347.29 284.891 346.077 286.171 345.225C287.451 344.372 288.955 343.919 290.493 343.921C292.551 343.925 294.525 344.746 295.979 346.203C297.434 347.66 298.251 349.635 298.251 351.693Z" fill="#A26769"/>
<path opacity="0.15" d="M298.127 353.071C297.263 354.356 295.979 355.299 294.495 355.74C293.011 356.18 291.421 356.089 289.996 355.483C285.656 353.691 284.36 346.953 287.943 344.362C286.648 344.809 285.495 345.589 284.598 346.624C283.702 347.66 283.095 348.914 282.84 350.259C282.584 351.604 282.688 352.993 283.142 354.286C283.596 355.578 284.383 356.727 285.423 357.617C286.464 358.507 287.722 359.106 289.069 359.354C290.415 359.602 291.804 359.489 293.093 359.028C294.383 358.567 295.527 357.773 296.411 356.727C297.295 355.681 297.887 354.42 298.127 353.071Z" fill="black"/>
<path d="M194.432 438.287C178.64 438.287 169.421 432.031 169.27 431.921C169.136 431.844 169.02 431.741 168.929 431.617C168.838 431.493 168.774 431.352 168.741 431.202C168.708 431.052 168.706 430.896 168.737 430.746C168.767 430.595 168.829 430.452 168.917 430.327C169.006 430.201 169.12 430.096 169.252 430.017C169.384 429.938 169.531 429.888 169.684 429.869C169.836 429.851 169.991 429.864 170.138 429.909C170.285 429.954 170.421 430.029 170.538 430.129C170.772 430.295 194.694 446.445 231.914 424.948C269.492 403.258 289.307 361.436 289.5 361.009C289.555 360.869 289.638 360.742 289.744 360.635C289.85 360.529 289.976 360.445 290.116 360.389C290.255 360.333 290.404 360.306 290.554 360.31C290.704 360.314 290.852 360.349 290.989 360.412C291.125 360.475 291.247 360.565 291.347 360.677C291.447 360.788 291.524 360.919 291.571 361.062C291.619 361.204 291.637 361.355 291.625 361.504C291.612 361.654 291.569 361.8 291.498 361.932C291.292 362.359 271.2 404.802 233.016 426.863C217.858 435.627 204.767 438.287 194.432 438.287Z" fill="#455A64"/>
<path d="M173.514 425.21H166.404V510.646C166.446 510.946 166.565 511.23 166.748 511.471C166.931 511.712 167.173 511.902 167.451 512.024C168.229 512.423 169.091 512.631 169.966 512.631C170.84 512.631 171.702 512.423 172.481 512.024C172.756 511.902 172.996 511.711 173.177 511.469C173.358 511.228 173.474 510.945 173.514 510.646V425.21Z" fill="#A26769"/>
<path d="M177.731 421.089C177.731 422.627 177.275 424.129 176.421 425.407C175.567 426.685 174.353 427.682 172.933 428.27C171.513 428.858 169.95 429.012 168.443 428.712C166.935 428.412 165.55 427.672 164.463 426.585C163.376 425.498 162.636 424.113 162.336 422.606C162.036 421.098 162.19 419.535 162.778 418.115C163.367 416.695 164.363 415.481 165.641 414.627C166.919 413.773 168.422 413.318 169.959 413.318C170.979 413.318 171.99 413.519 172.933 413.909C173.876 414.3 174.733 414.872 175.454 415.594C176.176 416.316 176.749 417.172 177.139 418.115C177.53 419.058 177.731 420.069 177.731 421.089Z" fill="#A26769"/>
<path opacity="0.15" d="M177.593 422.467C176.728 423.75 175.444 424.692 173.96 425.132C172.477 425.572 170.887 425.482 169.463 424.879C165.122 423.074 163.827 416.335 167.423 413.759C166.132 414.205 164.982 414.984 164.089 416.017C163.195 417.051 162.591 418.301 162.336 419.643C162.081 420.985 162.185 422.371 162.637 423.66C163.09 424.949 163.874 426.095 164.912 426.984C165.949 427.872 167.203 428.471 168.546 428.72C169.889 428.968 171.274 428.858 172.561 428.399C173.847 427.941 174.99 427.151 175.874 426.11C176.758 425.068 177.351 423.812 177.593 422.467Z" fill="black"/>
<path d="M73.8983 507.848C58.1065 507.848 48.8876 501.592 48.7361 501.482C48.6175 501.399 48.5165 501.294 48.4391 501.172C48.3616 501.05 48.3091 500.914 48.2848 500.772C48.2604 500.63 48.2646 500.484 48.2971 500.343C48.3297 500.202 48.3899 500.07 48.4742 499.952C48.6411 499.714 48.8956 499.551 49.1822 499.499C49.4688 499.448 49.7642 499.511 50.0038 499.677C50.2381 499.842 74.1602 516.006 111.38 494.509C148.958 472.82 168.774 430.984 168.967 430.57C169.022 430.43 169.104 430.303 169.21 430.197C169.316 430.09 169.443 430.007 169.582 429.951C169.721 429.895 169.871 429.868 170.021 429.872C170.171 429.876 170.319 429.91 170.455 429.973C170.591 430.036 170.713 430.126 170.813 430.238C170.914 430.35 170.99 430.481 171.038 430.623C171.085 430.766 171.104 430.916 171.091 431.066C171.078 431.215 171.035 431.361 170.965 431.493C170.758 431.921 150.667 474.363 112.482 496.411C97.283 505.189 84.192 507.848 73.8983 507.848Z" fill="#455A64"/>
<path d="M52.9804 494.771H45.8837V580.207C45.9124 580.518 46.0232 580.816 46.2048 581.07C46.3863 581.325 46.6322 581.526 46.9172 581.654C47.6954 582.053 48.5574 582.261 49.432 582.261C50.3066 582.261 51.1686 582.053 51.9469 581.654C52.2318 581.526 52.4777 581.325 52.6593 581.07C52.8409 580.816 52.9517 580.518 52.9804 580.207V494.771Z" fill="#A26769"/>
<path d="M57.197 490.651C57.197 492.189 56.7409 493.692 55.8863 494.97C55.0317 496.249 53.8171 497.245 52.3961 497.833C50.9752 498.42 49.4118 498.574 47.9038 498.273C46.3958 497.972 45.011 497.23 43.9247 496.142C42.8383 495.053 42.0992 493.667 41.8009 492.159C41.5025 490.65 41.6584 489.087 42.2488 487.667C42.8391 486.247 43.8374 485.034 45.1173 484.182C46.3972 483.33 47.9012 482.876 49.4389 482.879C50.4589 482.879 51.4688 483.08 52.411 483.471C53.3532 483.862 54.209 484.434 54.9296 485.156C55.6502 485.878 56.2214 486.735 56.6104 487.678C56.9995 488.621 57.1989 489.631 57.197 490.651Z" fill="#A26769"/>
<path opacity="0.15" d="M57.0731 492.029C56.2073 493.315 54.9208 494.259 53.4346 494.699C51.9483 495.139 50.3553 495.047 48.9291 494.44C44.6021 492.635 43.3068 485.897 46.8896 483.32C45.6004 483.768 44.4523 484.549 43.5613 485.583C42.6704 486.618 42.068 487.869 41.8151 489.21C41.5622 490.551 41.6677 491.936 42.121 493.223C42.5742 494.511 43.3592 495.656 44.3966 496.543C45.434 497.431 46.6871 498.028 48.0294 498.276C49.3717 498.524 50.7557 498.414 52.0417 497.956C53.3276 497.498 54.4699 496.709 55.3534 495.668C56.2368 494.627 56.83 493.372 57.0731 492.029Z" fill="black"/>
<path d="M385.533 503.866C386.746 505.74 386.153 509.833 386.291 511.555C386.429 513.278 386.291 514.986 386.456 516.681C386.799 518.473 386.512 520.328 385.643 521.932C384.877 523.028 383.873 523.939 382.706 524.595C381.54 525.251 380.241 525.636 378.905 525.721C376.227 525.871 373.547 525.482 371.023 524.577C368.51 523.667 365.947 522.898 363.347 522.276C356.774 521.008 350.187 522.717 343.711 520.471C342.196 519.923 340.71 519.298 339.26 518.597C337.933 518.017 336.648 517.345 335.415 516.585C332.342 514.587 328.057 510.425 328.622 506.484C328.674 505.648 328.901 504.833 329.288 504.091C329.676 503.349 330.216 502.696 330.872 502.177C331.529 501.657 332.287 501.281 333.098 501.073C333.909 500.866 334.755 500.831 335.581 500.972C340.913 501.399 346.164 502.777 351.51 502.846C354.898 502.927 358.287 502.766 361.652 502.364C365.373 501.827 368.708 501.055 369.19 499.029C369.948 495.818 376.976 499.387 379.787 500.889C380.683 501.358 381.523 501.964 382.419 502.433C383.111 502.684 383.82 502.886 384.541 503.039C384.954 503.197 385.303 503.488 385.533 503.866Z" fill="#263238"/>
<path d="M389.805 494.206L371.477 489.3L369.19 499.029C368.708 501.055 365.373 501.785 361.652 502.364C358.292 502.77 354.908 502.936 351.524 502.86C350.077 502.86 348.644 502.722 347.211 502.571C342.471 501.923 337.275 505.809 344.041 509.309C350.105 512.451 358.841 512.327 365.607 512.933C372.373 513.539 383.7 510.591 385.574 505.616L389.805 494.206Z" fill="#FFA8A7"/>
<path d="M424.227 480.247C425.44 482.107 424.847 486.2 424.985 487.936C425.123 489.673 424.985 491.367 425.151 493.049C425.49 494.842 425.198 496.697 424.324 498.299C423.561 499.4 422.558 500.315 421.391 500.974C420.224 501.632 418.923 502.018 417.585 502.102C414.911 502.247 412.236 501.854 409.717 500.945C407.205 500.034 404.642 499.27 402.042 498.657C395.468 497.376 388.882 499.084 382.391 496.852C380.882 496.297 379.401 495.667 377.954 494.964C376.624 494.39 375.339 493.717 374.109 492.952C371.023 490.968 366.751 486.806 367.316 482.851C367.365 482.021 367.588 481.21 367.97 480.471C368.352 479.733 368.885 479.082 369.535 478.563C370.184 478.043 370.936 477.666 371.74 477.455C372.545 477.244 373.385 477.205 374.206 477.339C379.553 477.753 384.803 479.145 390.149 479.2C393.537 479.294 396.928 479.133 400.291 478.717C404.012 478.194 407.347 477.422 407.815 475.396C408.587 472.172 415.601 475.755 418.426 477.243C419.322 477.725 420.162 478.318 421.058 478.786C421.747 479.059 422.456 479.276 423.18 479.434C423.608 479.584 423.975 479.87 424.227 480.247Z" fill="#263238"/>
<path d="M427.314 469.182L410.172 465.654L407.871 475.383C407.402 477.408 404.067 478.139 400.347 478.704C396.983 479.12 393.593 479.281 390.205 479.186C388.758 479.165 387.314 479.068 385.878 478.897C381.137 478.235 375.942 482.121 382.708 485.635C388.771 488.777 397.508 488.639 404.274 489.245C411.04 489.852 422.367 486.917 424.227 481.928L427.314 469.182Z" fill="#FFA8A7"/>
<path d="M418.026 394.067C415.546 408.701 407.995 469.182 407.995 469.182C407.995 469.182 413.121 478.731 427.369 473.316L444.374 405.794L418.026 394.067Z" fill="#A26769"/>
<g opacity="0.1">
<path opacity="0.1" d="M418.026 394.067C415.546 408.701 407.995 469.182 407.995 469.182C407.995 469.182 413.121 478.731 427.369 473.316L444.374 405.794L418.026 394.067Z" fill="black"/>
</g>
<path d="M391.018 408.054C388.689 414.627 369.769 493.324 369.769 493.324C369.769 493.324 374.909 503.687 389.157 498.216L417.117 430.474L391.018 408.054Z" fill="#A26769"/>
<path opacity="0.15" d="M416.042 433.064C416.042 433.064 405.17 429.013 401.807 424.92C401.807 424.92 405.294 434.153 414.471 436.854L416.042 433.064Z" fill="black"/>
<path d="M361.928 538.688H350.559V606.21C350.6 606.711 350.776 607.192 351.07 607.6C351.364 608.008 351.764 608.328 352.227 608.525C353.474 609.157 354.852 609.486 356.251 609.486C357.649 609.486 359.027 609.157 360.274 608.525C360.734 608.326 361.132 608.005 361.423 607.597C361.714 607.189 361.889 606.71 361.928 606.21V538.688Z" fill="#A26769"/>
<path d="M352.227 536.401C350.008 537.682 350.008 539.763 352.227 541.044C353.474 541.676 354.852 542.006 356.251 542.006C357.649 542.006 359.027 541.676 360.274 541.044C362.493 539.763 362.493 537.682 360.274 536.401C359.027 535.769 357.649 535.439 356.251 535.439C354.852 535.439 353.474 535.769 352.227 536.401Z" fill="#455A64"/>
<path d="M600.749 400.681H589.381V468.203C589.427 468.704 589.606 469.184 589.899 469.593C590.192 470.003 590.589 470.327 591.048 470.532C592.293 471.164 593.669 471.493 595.065 471.493C596.461 471.493 597.837 471.164 599.082 470.532C599.541 470.327 599.938 470.003 600.231 469.593C600.524 469.184 600.703 468.704 600.749 468.203V400.681Z" fill="#A26769"/>
<path d="M591.048 398.366C588.816 399.648 588.816 401.729 591.048 403.01C592.293 403.642 593.669 403.971 595.065 403.971C596.461 403.971 597.837 403.642 599.082 403.01C601.3 401.729 601.3 399.648 599.082 398.366C597.837 397.734 596.461 397.405 595.065 397.405C593.669 397.405 592.293 397.734 591.048 398.366Z" fill="#455A64"/>
<path d="M305.072 505.892H293.648V573.414C293.685 573.916 293.858 574.398 294.15 574.809C294.441 575.22 294.839 575.542 295.302 575.742C296.549 576.374 297.927 576.704 299.325 576.704C300.723 576.704 302.102 576.374 303.349 575.742C303.808 575.537 304.205 575.213 304.498 574.804C304.791 574.395 304.97 573.915 305.016 573.414L305.072 505.892Z" fill="#A26769"/>
<path d="M295.357 503.577C293.138 504.858 293.138 506.939 295.357 508.22C296.604 508.852 297.982 509.182 299.381 509.182C300.779 509.182 302.157 508.852 303.404 508.22C305.623 506.939 305.623 504.858 303.404 503.577C302.157 502.945 300.779 502.615 299.381 502.615C297.982 502.615 296.604 502.945 295.357 503.577Z" fill="#455A64"/>
<path d="M543.893 367.816H532.51V435.338C532.551 435.839 532.727 436.32 533.021 436.728C533.315 437.136 533.715 437.456 534.178 437.653C535.425 438.285 536.803 438.614 538.202 438.614C539.6 438.614 540.978 438.285 542.225 437.653C542.684 437.45 543.08 437.128 543.373 436.721C543.666 436.315 543.845 435.837 543.893 435.338V367.816Z" fill="#A26769"/>
<path d="M534.178 365.528C531.959 366.81 531.959 368.891 534.178 370.172C535.425 370.804 536.803 371.134 538.202 371.134C539.6 371.134 540.978 370.804 542.225 370.172C544.444 368.891 544.444 366.81 542.225 365.528C540.978 364.897 539.6 364.567 538.202 364.567C536.803 364.567 535.425 364.897 534.178 365.528Z" fill="#455A64"/>
<path d="M288.026 515.524V509.392C288.085 508.34 288.39 507.318 288.916 506.406C289.443 505.494 290.176 504.718 291.057 504.142L535.184 363.213C536.124 362.738 537.162 362.49 538.215 362.49C539.269 362.49 540.307 362.738 541.247 363.213L603.409 399.041C604.29 399.618 605.023 400.394 605.55 401.306C606.076 402.217 606.381 403.24 606.44 404.292V410.534C606.381 411.585 606.076 412.608 605.55 413.52C605.023 414.432 604.29 415.208 603.409 415.784L359.282 556.671C358.342 557.147 357.304 557.395 356.251 557.395C355.197 557.395 354.159 557.147 353.219 556.671L291.057 520.774C290.175 520.199 289.44 519.424 288.913 518.512C288.387 517.599 288.083 516.576 288.026 515.524Z" fill="#37474F"/>
<path d="M356.251 544.2V557.332C355.189 557.356 354.14 557.104 353.205 556.602L291.057 520.774C290.173 520.201 289.437 519.426 288.911 518.513C288.384 517.601 288.08 516.576 288.026 515.524V509.392C288.079 508.452 288.328 507.533 288.757 506.695C289.187 505.857 289.787 505.119 290.52 504.527C289.404 505.478 289.597 506.801 291.057 507.642L353.205 543.47C354.142 543.967 355.19 544.219 356.251 544.2Z" fill="#263238"/>
<path d="M291.057 504.142L535.184 363.213C536.124 362.738 537.162 362.49 538.215 362.49C539.269 362.49 540.307 362.738 541.247 363.213L603.409 399.041C603.775 399.165 604.094 399.4 604.319 399.714C604.545 400.028 604.666 400.405 604.666 400.792C604.666 401.178 604.545 401.555 604.319 401.869C604.094 402.183 603.775 402.418 603.409 402.542L359.282 543.539C358.342 544.014 357.304 544.262 356.25 544.262C355.197 544.262 354.159 544.014 353.219 543.539L291.057 507.711C290.664 507.606 290.316 507.374 290.068 507.051C289.82 506.729 289.685 506.333 289.685 505.926C289.685 505.519 289.82 505.123 290.068 504.801C290.316 504.478 290.664 504.246 291.057 504.142Z" fill="#455A64"/>
<path d="M509.181 308.769C514.39 308.231 517.132 308.507 520.88 310.836C524.628 313.165 526.185 317.657 527.77 326.669C529.355 335.681 531.518 373.424 529.989 375.836C523.016 386.75 501.905 372.749 501.905 372.749L509.181 308.769Z" fill="#FFA8A7"/>
<path d="M520.88 408.329C520.88 408.329 468.737 391.876 459.187 389.258C449.638 386.639 431.352 382.257 426.005 384.655C420.658 387.053 417.944 389.823 417.461 397.539C417.351 398.986 417.461 406.042 417.461 406.042C417.461 406.042 443.974 414.31 465.691 414.31C487.409 414.31 520.88 408.329 520.88 408.329Z" fill="#A26769"/>
<g opacity="0.1">
<path opacity="0.1" d="M520.88 408.329C524.601 409.501 468.985 391.959 459.187 389.258C449.651 386.639 431.352 382.257 426.005 384.655C420.658 387.053 417.944 389.823 417.461 397.539C417.351 398.986 417.461 406.042 417.461 406.042C417.461 406.042 443.974 414.31 465.691 414.31C487.409 414.31 520.88 408.329 520.88 408.329Z" fill="black"/>
</g>
<path d="M524.394 399.11C525.896 412.684 522.906 426.161 519.378 430.377C513.866 436.95 497.22 448.539 469.15 444.35C454.447 442.173 411.357 430.405 411.357 430.405C411.357 430.405 390.397 422.66 390.301 417.148C390.301 415.77 390.163 414.392 390.301 412.932C390.742 405.601 393.705 397.705 409.042 398.104C418.453 398.366 438.255 401.04 453.813 403.341C457.41 403.864 461.599 394.329 464.548 394.783C471.575 395.872 475.475 406.689 475.475 406.689L524.394 399.11Z" fill="#A26769"/>
<path d="M421.954 353.664L472.499 380.811L473.325 382.12V383.167C473.317 383.439 473.235 383.704 473.09 383.934C472.945 384.164 472.74 384.351 472.499 384.476L419.308 415.192C418.883 415.415 418.41 415.532 417.93 415.532C417.45 415.532 416.977 415.415 416.552 415.192L366.944 386.502V385.454L421.954 353.664Z" fill="#263238"/>
<path d="M417.916 414.475C418.397 414.478 418.871 414.36 419.294 414.131L472.485 383.429C472.733 383.312 472.943 383.127 473.09 382.895C473.237 382.663 473.315 382.394 473.315 382.12C473.315 381.845 473.237 381.576 473.09 381.344C472.943 381.113 472.733 380.927 472.485 380.811L423.731 352.658L366.902 385.454L416.51 414.131C416.941 414.365 417.426 414.484 417.916 414.475Z" fill="#455A64"/>
<path d="M423.731 349.557L472.058 377.462L472.457 378.013V382.147C472.444 382.266 472.4 382.379 472.33 382.476C472.26 382.572 472.166 382.649 472.058 382.698L418.867 413.4C418.575 413.55 418.251 413.628 417.923 413.628C417.595 413.628 417.271 413.55 416.979 413.4L368.653 385.454V381.32L423.731 349.557Z" fill="#F5F5F5"/>
<path d="M368.653 381.362L369.121 381.637L375.336 385.22L376.493 385.895L416.979 409.321C417.271 409.471 417.595 409.549 417.923 409.549C418.251 409.549 418.575 409.471 418.867 409.321L472.058 378.62C472.174 378.582 472.276 378.509 472.349 378.41C472.421 378.31 472.46 378.191 472.46 378.068C472.46 377.946 472.421 377.826 472.349 377.727C472.276 377.628 472.174 377.555 472.058 377.517L471.562 377.228L423.731 349.557L369.121 381.086L369.011 381.155L368.653 381.362Z" fill="#EBEBEB"/>
<path d="M417.93 409.514V413.648C418.257 413.651 418.579 413.57 418.867 413.414L472.058 382.712C472.167 382.664 472.262 382.587 472.332 382.491C472.402 382.394 472.445 382.28 472.457 382.161V378.027C472.443 378.145 472.399 378.258 472.329 378.354C472.259 378.451 472.166 378.528 472.058 378.578L418.867 409.28C418.579 409.436 418.257 409.517 417.93 409.514Z" fill="#E0E0E0"/>
<path d="M368.653 380.824L375.543 384.779L376.617 385.399L416.979 408.743C417.273 408.885 417.596 408.959 417.923 408.959C418.25 408.959 418.573 408.885 418.867 408.743L466.504 381.183L467.703 380.494C469.215 379.661 470.53 378.515 471.562 377.131L471.644 376.993C471.703 376.905 471.745 376.807 471.768 376.704C471.801 376.487 471.749 376.266 471.623 376.087C471.498 375.907 471.308 375.783 471.093 375.739C469.848 375.377 468.646 374.878 467.51 374.251L423.731 349.006L368.653 380.824Z" fill="#FAFAFA"/>
<path opacity="0.1" d="M375.763 380.342C375.87 380.378 375.963 380.446 376.029 380.538C376.095 380.629 376.131 380.739 376.131 380.852C376.131 380.965 376.095 381.075 376.029 381.166C375.963 381.258 375.87 381.326 375.763 381.362C375.488 381.504 375.184 381.579 374.874 381.579C374.565 381.579 374.26 381.504 373.985 381.362C373.878 381.326 373.785 381.258 373.719 381.166C373.653 381.075 373.618 380.965 373.618 380.852C373.618 380.739 373.653 380.629 373.719 380.538C373.785 380.446 373.878 380.378 373.985 380.342C374.26 380.199 374.565 380.125 374.874 380.125C375.184 380.125 375.488 380.199 375.763 380.342Z" fill="black"/>
<path d="M368.845 379.777C368.848 380.072 368.871 380.367 368.914 380.659L369.534 380.301C369.534 380.135 369.534 379.956 369.534 379.777C369.485 379.366 369.542 378.949 369.699 378.566C369.855 378.182 370.107 377.845 370.43 377.586C370.624 377.477 370.842 377.42 371.064 377.421C371.449 377.435 371.824 377.549 372.153 377.751C373.474 378.661 374.423 380.016 374.826 381.568C375.045 381.583 375.265 381.555 375.474 381.486C375.032 379.737 373.969 378.209 372.483 377.186C372.137 376.947 371.734 376.806 371.314 376.777C370.895 376.748 370.475 376.832 370.099 377.021C369.669 377.332 369.327 377.75 369.108 378.233C368.888 378.716 368.797 379.248 368.845 379.777Z" fill="#A26769"/>
<path d="M368.969 381.003V381.155L369.08 381.086L368.969 381.003Z" fill="#263238"/>
<path opacity="0.1" d="M381.082 377.255C381.188 377.294 381.278 377.365 381.343 377.457C381.407 377.55 381.441 377.66 381.441 377.772C381.441 377.885 381.407 377.994 381.343 378.087C381.278 378.179 381.188 378.25 381.082 378.289C380.808 378.425 380.506 378.496 380.2 378.496C379.894 378.496 379.592 378.425 379.318 378.289C379.213 378.25 379.122 378.179 379.057 378.087C378.993 377.994 378.959 377.885 378.959 377.772C378.959 377.66 378.993 377.55 379.057 377.457C379.122 377.365 379.213 377.294 379.318 377.255C379.592 377.119 379.894 377.049 380.2 377.049C380.506 377.049 380.808 377.119 381.082 377.255Z" fill="black"/>
<path d="M374.178 376.704C374.181 376.999 374.204 377.294 374.247 377.586L374.867 377.228C374.854 377.053 374.854 376.878 374.867 376.704C374.818 376.293 374.875 375.876 375.032 375.493C375.188 375.109 375.44 374.772 375.763 374.513C375.956 374.402 376.175 374.345 376.397 374.348C376.782 374.362 377.157 374.476 377.486 374.678C378.807 375.588 379.756 376.943 380.159 378.495C380.378 378.51 380.598 378.482 380.807 378.413C380.36 376.666 379.298 375.14 377.816 374.113C377.471 373.872 377.067 373.729 376.647 373.699C376.227 373.67 375.807 373.756 375.432 373.948C374.998 374.255 374.653 374.672 374.433 375.157C374.212 375.641 374.125 376.175 374.178 376.704Z" fill="#A26769"/>
<path opacity="0.1" d="M386.415 374.182C386.522 374.218 386.615 374.286 386.681 374.378C386.747 374.469 386.783 374.579 386.783 374.692C386.783 374.805 386.747 374.915 386.681 375.006C386.615 375.098 386.522 375.166 386.415 375.202C386.143 375.345 385.84 375.419 385.533 375.419C385.226 375.419 384.923 375.345 384.651 375.202C384.544 375.166 384.451 375.098 384.385 375.006C384.319 374.915 384.284 374.805 384.284 374.692C384.284 374.579 384.319 374.469 384.385 374.378C384.451 374.286 384.544 374.218 384.651 374.182C384.923 374.04 385.226 373.965 385.533 373.965C385.84 373.965 386.143 374.04 386.415 374.182Z" fill="black"/>
<path d="M379.511 373.631C379.514 373.926 379.537 374.221 379.58 374.513L380.2 374.155C380.187 373.981 380.187 373.805 380.2 373.631C380.146 373.22 380.2 372.801 380.357 372.417C380.514 372.032 380.769 371.696 381.096 371.44C381.287 371.325 381.506 371.263 381.73 371.261C382.116 371.281 382.491 371.4 382.818 371.605C384.134 372.511 385.079 373.862 385.478 375.409C385.701 375.421 385.924 375.398 386.139 375.34C385.693 373.59 384.631 372.059 383.149 371.027C382.803 370.788 382.399 370.646 381.98 370.617C381.56 370.588 381.141 370.672 380.765 370.861C380.332 371.173 379.988 371.592 379.768 372.079C379.548 372.565 379.459 373.1 379.511 373.631Z" fill="#A26769"/>
<path opacity="0.1" d="M391.748 371.109C391.855 371.145 391.948 371.214 392.014 371.305C392.08 371.397 392.115 371.506 392.115 371.619C392.115 371.732 392.08 371.842 392.014 371.934C391.948 372.025 391.855 372.093 391.748 372.129C391.476 372.272 391.173 372.346 390.866 372.346C390.559 372.346 390.256 372.272 389.984 372.129C389.877 372.093 389.784 372.025 389.718 371.934C389.652 371.842 389.616 371.732 389.616 371.619C389.616 371.506 389.652 371.397 389.718 371.305C389.784 371.214 389.877 371.145 389.984 371.109C390.256 370.967 390.559 370.893 390.866 370.893C391.173 370.893 391.476 370.967 391.748 371.109Z" fill="black"/>
<path d="M384.844 370.572C384.839 370.868 384.863 371.163 384.913 371.454L385.533 371.096C385.519 370.921 385.519 370.746 385.533 370.572C385.483 370.159 385.54 369.741 385.7 369.357C385.859 368.973 386.115 368.637 386.442 368.381C386.635 368.269 386.854 368.212 387.076 368.216C387.462 368.23 387.837 368.344 388.165 368.546C389.482 369.457 390.426 370.813 390.825 372.363C391.048 372.378 391.273 372.35 391.486 372.281C391.04 370.531 389.972 369.002 388.482 367.981C388.139 367.742 387.737 367.601 387.32 367.571C386.902 367.542 386.485 367.627 386.112 367.816C385.677 368.124 385.331 368.54 385.108 369.024C384.886 369.508 384.795 370.042 384.844 370.572Z" fill="#A26769"/>
<path opacity="0.1" d="M397.081 368.023C397.186 368.062 397.277 368.132 397.341 368.225C397.406 368.317 397.44 368.427 397.44 368.539C397.44 368.652 397.406 368.762 397.341 368.854C397.277 368.947 397.186 369.017 397.081 369.056C396.807 369.192 396.505 369.263 396.199 369.263C395.893 369.263 395.591 369.192 395.317 369.056C395.211 369.017 395.12 368.947 395.056 368.854C394.992 368.762 394.958 368.652 394.958 368.539C394.958 368.427 394.992 368.317 395.056 368.225C395.12 368.132 395.211 368.062 395.317 368.023C395.591 367.887 395.893 367.816 396.199 367.816C396.505 367.816 396.807 367.887 397.081 368.023Z" fill="black"/>
<path d="M390.177 367.471C390.157 367.765 390.157 368.06 390.177 368.353L390.797 367.995C390.797 367.816 390.797 367.651 390.797 367.471C390.748 367.06 390.804 366.643 390.961 366.26C391.118 365.877 391.37 365.54 391.693 365.28C391.89 365.17 392.114 365.113 392.34 365.115C392.722 365.128 393.093 365.242 393.415 365.446C394.736 366.355 395.685 367.71 396.088 369.263C396.308 369.278 396.528 369.25 396.736 369.18C396.3 367.429 395.236 365.899 393.746 364.881C393.404 364.639 393.002 364.495 392.584 364.466C392.166 364.437 391.748 364.523 391.376 364.715C390.951 365.029 390.617 365.449 390.407 365.933C390.196 366.417 390.117 366.947 390.177 367.471Z" fill="#A26769"/>
<path opacity="0.1" d="M402.413 364.95C402.52 364.985 402.614 365.054 402.68 365.145C402.745 365.237 402.781 365.347 402.781 365.46C402.781 365.572 402.745 365.682 402.68 365.774C402.614 365.865 402.52 365.934 402.413 365.969C402.141 366.112 401.839 366.186 401.532 366.186C401.224 366.186 400.922 366.112 400.65 365.969C400.543 365.934 400.45 365.865 400.384 365.774C400.318 365.682 400.282 365.572 400.282 365.46C400.282 365.347 400.318 365.237 400.384 365.145C400.45 365.054 400.543 364.985 400.65 364.95C400.922 364.807 401.224 364.733 401.532 364.733C401.839 364.733 402.141 364.807 402.413 364.95Z" fill="black"/>
<path d="M395.51 364.399C395.49 364.692 395.49 364.987 395.51 365.28L396.13 364.922C396.13 364.743 396.13 364.564 396.13 364.399C396.08 363.985 396.136 363.566 396.292 363.18C396.449 362.795 396.701 362.455 397.026 362.194C397.226 362.089 397.448 362.033 397.673 362.028C398.055 362.049 398.426 362.167 398.748 362.373C400.068 363.277 401.018 364.628 401.421 366.176C401.64 366.189 401.858 366.166 402.069 366.107C401.633 364.353 400.569 362.818 399.079 361.794C398.735 361.556 398.333 361.416 397.916 361.387C397.499 361.357 397.082 361.441 396.709 361.629C396.285 361.947 395.952 362.369 395.742 362.855C395.532 363.34 395.452 363.873 395.51 364.399Z" fill="#A26769"/>
<path opacity="0.1" d="M407.746 361.877C408.229 362.152 408.229 362.607 407.746 362.897C407.472 363.039 407.167 363.113 406.858 363.113C406.548 363.113 406.243 363.039 405.969 362.897C405.486 362.607 405.486 362.152 405.969 361.877C406.243 361.734 406.548 361.66 406.858 361.66C407.167 361.66 407.472 361.734 407.746 361.877Z" fill="black"/>
<path d="M400.829 361.312C400.831 361.607 400.854 361.902 400.898 362.194L401.518 361.835C401.518 361.67 401.518 361.491 401.518 361.312C401.469 360.901 401.525 360.484 401.682 360.1C401.839 359.717 402.09 359.38 402.413 359.121C402.607 359.012 402.825 358.955 403.047 358.955C403.433 358.968 403.809 359.082 404.136 359.286C405.457 360.196 406.406 361.551 406.809 363.103C407.028 363.118 407.249 363.09 407.457 363.021C407.021 361.269 405.957 359.739 404.467 358.721C404.121 358.482 403.717 358.341 403.297 358.312C402.878 358.283 402.458 358.367 402.083 358.556C401.653 358.867 401.311 359.285 401.091 359.768C400.871 360.251 400.781 360.783 400.829 361.312Z" fill="#A26769"/>
<path opacity="0.1" d="M413.079 358.79C413.185 358.829 413.276 358.9 413.34 358.992C413.404 359.085 413.439 359.194 413.439 359.307C413.439 359.419 413.404 359.529 413.34 359.622C413.276 359.714 413.185 359.784 413.079 359.824C412.803 359.96 412.499 360.031 412.19 360.031C411.882 360.031 411.578 359.96 411.302 359.824C411.196 359.784 411.105 359.714 411.041 359.622C410.977 359.529 410.942 359.419 410.942 359.307C410.942 359.194 410.977 359.085 411.041 358.992C411.105 358.9 411.196 358.829 411.302 358.79C411.578 358.654 411.882 358.583 412.19 358.583C412.499 358.583 412.803 358.654 413.079 358.79Z" fill="black"/>
<path d="M406.162 358.239C406.165 358.534 406.188 358.829 406.231 359.121L406.851 358.763C406.851 358.583 406.851 358.418 406.851 358.239C406.802 357.828 406.858 357.411 407.015 357.027C407.172 356.644 407.423 356.307 407.746 356.048C407.94 355.939 408.158 355.882 408.38 355.883C408.766 355.895 409.141 356.009 409.469 356.213C410.79 357.123 411.739 358.478 412.142 360.03C412.361 360.045 412.581 360.017 412.79 359.948C412.354 358.196 411.29 356.666 409.8 355.648C409.455 355.407 409.051 355.263 408.631 355.234C408.211 355.205 407.79 355.291 407.416 355.483C406.983 355.792 406.64 356.209 406.42 356.693C406.2 357.177 406.111 357.71 406.162 358.239Z" fill="#A26769"/>
<path opacity="0.1" d="M418.398 355.717C418.505 355.753 418.598 355.821 418.664 355.913C418.73 356.004 418.766 356.114 418.766 356.227C418.766 356.34 418.73 356.45 418.664 356.541C418.598 356.633 418.505 356.701 418.398 356.737C418.124 356.879 417.819 356.954 417.51 356.954C417.2 356.954 416.895 356.879 416.621 356.737C416.514 356.701 416.421 356.633 416.355 356.541C416.289 356.45 416.253 356.34 416.253 356.227C416.253 356.114 416.289 356.004 416.355 355.913C416.421 355.821 416.514 355.753 416.621 355.717C416.895 355.572 417.2 355.497 417.51 355.497C417.819 355.497 418.124 355.572 418.398 355.717Z" fill="black"/>
<path d="M411.495 355.152C411.497 355.452 411.52 355.751 411.563 356.048L412.184 355.69C412.17 355.511 412.17 355.331 412.184 355.152C412.135 354.741 412.191 354.324 412.348 353.941C412.504 353.557 412.756 353.22 413.079 352.961C413.272 352.85 413.491 352.793 413.713 352.796C414.097 352.817 414.471 352.931 414.802 353.127C416.123 354.036 417.072 355.391 417.475 356.944C417.693 356.955 417.912 356.932 418.123 356.875C417.685 355.12 416.622 353.587 415.132 352.562C414.786 352.323 414.383 352.181 413.963 352.152C413.544 352.123 413.124 352.207 412.748 352.396C412.318 352.707 411.976 353.125 411.757 353.608C411.537 354.091 411.446 354.623 411.495 355.152Z" fill="#A26769"/>
<path opacity="0.1" d="M423.731 352.658C423.837 352.697 423.928 352.768 423.992 352.86C424.056 352.952 424.091 353.062 424.091 353.175C424.091 353.287 424.056 353.397 423.992 353.489C423.928 353.582 423.837 353.652 423.731 353.692C423.457 353.828 423.155 353.898 422.849 353.898C422.543 353.898 422.241 353.828 421.967 353.692C421.862 353.652 421.771 353.582 421.707 353.489C421.642 353.397 421.608 353.287 421.608 353.175C421.608 353.062 421.642 352.952 421.707 352.86C421.771 352.768 421.862 352.697 421.967 352.658C422.241 352.522 422.543 352.451 422.849 352.451C423.155 352.451 423.457 352.522 423.731 352.658Z" fill="black"/>
<path d="M416.827 352.079C416.83 352.374 416.853 352.669 416.896 352.961L417.516 352.603C417.502 352.429 417.502 352.253 417.516 352.079C417.467 351.668 417.524 351.251 417.681 350.868C417.837 350.484 418.089 350.147 418.412 349.888C418.605 349.777 418.824 349.72 419.046 349.723C419.431 349.737 419.806 349.851 420.135 350.054C421.455 350.961 422.4 352.318 422.794 353.871C423.018 353.886 423.242 353.858 423.456 353.788C422.999 352.035 421.922 350.508 420.424 349.489C420.078 349.25 419.674 349.108 419.255 349.079C418.835 349.05 418.416 349.134 418.04 349.323C417.614 349.636 417.278 350.056 417.065 350.539C416.853 351.023 416.77 351.554 416.827 352.079Z" fill="#A26769"/>
<g opacity="0.3">
<path opacity="0.3" d="M368.845 379.777C368.848 380.072 368.871 380.367 368.914 380.659L369.534 380.301C369.534 380.135 369.534 379.956 369.534 379.777C369.485 379.366 369.542 378.949 369.699 378.566C369.855 378.182 370.107 377.845 370.43 377.586C370.624 377.477 370.842 377.42 371.064 377.421C371.449 377.435 371.824 377.549 372.153 377.751C373.474 378.661 374.423 380.016 374.826 381.568C375.045 381.583 375.265 381.555 375.474 381.486C375.032 379.737 373.969 378.209 372.483 377.186C372.137 376.947 371.734 376.806 371.314 376.777C370.895 376.748 370.475 376.832 370.099 377.021C369.669 377.332 369.327 377.75 369.108 378.233C368.888 378.716 368.797 379.248 368.845 379.777Z" fill="black"/>
<path opacity="0.3" d="M374.178 376.704C374.181 376.999 374.204 377.294 374.247 377.586L374.867 377.228C374.854 377.053 374.854 376.878 374.867 376.704C374.818 376.293 374.875 375.876 375.032 375.493C375.188 375.109 375.44 374.772 375.763 374.513C375.956 374.402 376.175 374.345 376.397 374.348C376.782 374.362 377.157 374.476 377.486 374.678C378.807 375.588 379.756 376.943 380.159 378.495C380.378 378.51 380.598 378.482 380.807 378.413C380.36 376.666 379.298 375.14 377.816 374.113C377.471 373.872 377.067 373.729 376.647 373.699C376.227 373.67 375.807 373.756 375.432 373.948C374.998 374.255 374.653 374.672 374.433 375.157C374.212 375.641 374.125 376.175 374.178 376.704Z" fill="black"/>
<path opacity="0.3" d="M379.511 373.631C379.514 373.926 379.537 374.221 379.58 374.513L380.2 374.155C380.187 373.981 380.187 373.805 380.2 373.631C380.146 373.22 380.2 372.801 380.357 372.417C380.514 372.032 380.769 371.696 381.096 371.44C381.287 371.325 381.506 371.263 381.73 371.261C382.116 371.281 382.491 371.4 382.818 371.605C384.134 372.511 385.079 373.862 385.478 375.409C385.701 375.421 385.924 375.398 386.139 375.34C385.693 373.59 384.631 372.059 383.149 371.027C382.803 370.788 382.399 370.646 381.98 370.617C381.56 370.588 381.141 370.672 380.765 370.861C380.332 371.173 379.988 371.592 379.768 372.079C379.548 372.565 379.459 373.1 379.511 373.631Z" fill="black"/>
<path opacity="0.3" d="M384.844 370.572C384.839 370.868 384.863 371.163 384.913 371.454L385.533 371.096C385.519 370.921 385.519 370.746 385.533 370.572C385.483 370.159 385.54 369.741 385.7 369.357C385.859 368.973 386.115 368.637 386.442 368.381C386.635 368.269 386.854 368.212 387.076 368.216C387.462 368.23 387.837 368.344 388.165 368.546C389.482 369.457 390.426 370.813 390.825 372.363C391.048 372.378 391.273 372.35 391.486 372.281C391.04 370.531 389.972 369.002 388.482 367.981C388.139 367.742 387.737 367.601 387.32 367.571C386.902 367.542 386.485 367.627 386.112 367.816C385.677 368.124 385.331 368.54 385.108 369.024C384.886 369.508 384.795 370.042 384.844 370.572Z" fill="black"/>
<path opacity="0.3" d="M390.177 367.471C390.157 367.765 390.157 368.06 390.177 368.353L390.797 367.995C390.797 367.816 390.797 367.651 390.797 367.471C390.748 367.06 390.804 366.643 390.961 366.26C391.118 365.877 391.37 365.54 391.693 365.28C391.89 365.17 392.114 365.113 392.34 365.115C392.722 365.128 393.093 365.242 393.415 365.446C394.736 366.355 395.685 367.71 396.088 369.263C396.308 369.278 396.528 369.25 396.736 369.18C396.3 367.429 395.236 365.899 393.746 364.881C393.404 364.639 393.002 364.495 392.584 364.466C392.166 364.437 391.748 364.523 391.376 364.715C390.951 365.029 390.617 365.449 390.407 365.933C390.196 366.417 390.117 366.947 390.177 367.471Z" fill="black"/>
<path opacity="0.3" d="M395.51 364.399C395.49 364.692 395.49 364.987 395.51 365.28L396.13 364.922C396.13 364.743 396.13 364.564 396.13 364.399C396.08 363.985 396.136 363.566 396.292 363.18C396.449 362.795 396.701 362.455 397.025 362.194C397.226 362.089 397.447 362.033 397.673 362.028C398.055 362.049 398.425 362.167 398.748 362.373C400.068 363.277 401.017 364.628 401.421 366.176C401.64 366.189 401.858 366.166 402.069 366.107C401.633 364.353 400.569 362.818 399.079 361.794C398.735 361.556 398.333 361.416 397.916 361.387C397.499 361.357 397.082 361.441 396.709 361.629C396.285 361.947 395.952 362.369 395.742 362.855C395.532 363.34 395.452 363.873 395.51 364.399Z" fill="black"/>
<path opacity="0.3" d="M400.829 361.312C400.831 361.607 400.854 361.902 400.898 362.194L401.518 361.835C401.518 361.67 401.518 361.491 401.518 361.312C401.469 360.901 401.525 360.484 401.682 360.1C401.839 359.717 402.09 359.38 402.413 359.121C402.607 359.012 402.825 358.955 403.047 358.955C403.433 358.968 403.809 359.082 404.136 359.286C405.457 360.196 406.406 361.551 406.809 363.103C407.028 363.118 407.249 363.09 407.457 363.021C407.021 361.269 405.957 359.739 404.467 358.721C404.121 358.482 403.717 358.341 403.297 358.312C402.878 358.283 402.458 358.367 402.083 358.556C401.653 358.867 401.311 359.285 401.091 359.768C400.871 360.251 400.781 360.783 400.829 361.312Z" fill="black"/>
<path opacity="0.3" d="M406.162 358.239C406.165 358.534 406.188 358.829 406.231 359.121L406.851 358.763C406.851 358.583 406.851 358.418 406.851 358.239C406.802 357.828 406.858 357.411 407.015 357.027C407.172 356.644 407.423 356.307 407.746 356.048C407.94 355.939 408.158 355.882 408.38 355.883C408.766 355.895 409.141 356.009 409.469 356.213C410.79 357.123 411.739 358.478 412.142 360.03C412.361 360.045 412.581 360.017 412.79 359.948C412.354 358.196 411.29 356.666 409.8 355.648C409.455 355.407 409.051 355.263 408.631 355.234C408.211 355.205 407.79 355.291 407.416 355.483C406.983 355.792 406.64 356.209 406.42 356.693C406.2 357.177 406.111 357.71 406.162 358.239Z" fill="black"/>
<path opacity="0.3" d="M411.495 355.152C411.497 355.452 411.52 355.751 411.563 356.048L412.184 355.69C412.17 355.511 412.17 355.331 412.184 355.152C412.135 354.741 412.191 354.324 412.348 353.941C412.504 353.557 412.756 353.22 413.079 352.961C413.272 352.85 413.491 352.793 413.713 352.796C414.097 352.817 414.471 352.931 414.802 353.127C416.123 354.036 417.072 355.391 417.475 356.944C417.693 356.955 417.912 356.932 418.123 356.875C417.685 355.12 416.622 353.587 415.132 352.562C414.786 352.323 414.383 352.181 413.963 352.152C413.544 352.123 413.124 352.207 412.748 352.396C412.318 352.707 411.976 353.125 411.757 353.608C411.537 354.091 411.446 354.623 411.495 355.152Z" fill="black"/>
<path opacity="0.3" d="M416.827 352.079C416.83 352.374 416.853 352.669 416.896 352.961L417.516 352.603C417.502 352.429 417.502 352.253 417.516 352.079C417.467 351.668 417.524 351.251 417.681 350.868C417.837 350.484 418.089 350.147 418.412 349.888C418.605 349.777 418.824 349.72 419.046 349.723C419.431 349.737 419.806 349.851 420.135 350.054C421.455 350.961 422.4 352.318 422.794 353.871C423.018 353.886 423.242 353.858 423.456 353.788C422.999 352.035 421.922 350.508 420.424 349.489C420.078 349.25 419.674 349.108 419.255 349.079C418.835 349.05 418.416 349.134 418.04 349.323C417.614 349.636 417.278 350.056 417.065 350.539C416.853 351.023 416.77 351.554 416.827 352.079Z" fill="black"/>
</g>
<path d="M512.323 359.093L457.065 352.493C451.856 349.447 448.232 347.532 442.238 346.981C439.955 347.233 437.766 348.032 435.858 349.309C430.166 353.554 423.015 367.361 432.95 369.042C438.862 370.048 445.903 367.223 450.699 367.017C454.597 367.157 458.478 367.618 462.301 368.395C476.495 371.275 495.911 375.905 511.344 379.24C517.173 380.494 522.796 381.624 525.993 375.202C531.215 364.674 512.323 359.093 512.323 359.093Z" fill="#FFA8A7"/>
<path d="M441.246 357.095L434.59 369.222C435.047 369.152 435.511 369.152 435.968 369.222L440.185 363.076C441.563 361.091 443.147 358.514 443.147 358.514C443.147 358.514 447.777 356.103 449.183 353.733C450.588 351.363 441.246 357.095 441.246 357.095Z" fill="#F28F8F"/>
<path d="M425.729 371.247L423.952 380.742C423.937 380.803 423.943 380.866 423.968 380.924C423.992 380.981 424.035 381.029 424.09 381.06C424.144 381.091 424.207 381.104 424.269 381.096C424.331 381.088 424.389 381.061 424.434 381.017L431.668 374.527L425.729 371.247Z" fill="#FFA8A7"/>
<path d="M424.393 381.045L431.627 374.554L428.485 372.818L427.893 373.852L424.186 380.742L424.393 381.045Z" fill="#F28F8F"/>
<path d="M424.434 381.017C424.389 381.061 424.331 381.088 424.269 381.096C424.207 381.104 424.144 381.091 424.09 381.06C424.035 381.029 423.992 380.981 423.968 380.924C423.943 380.866 423.937 380.803 423.952 380.742L424.296 378.881C424.452 379.137 424.677 379.344 424.945 379.478C425.213 379.612 425.514 379.668 425.812 379.639H425.936L424.434 381.017Z" fill="#263238"/>
<path d="M451.649 339.002L451.209 339.774L450.671 340.725L431.668 374.527C430.623 374.846 429.496 374.757 428.513 374.279C427.844 374.031 427.245 373.627 426.765 373.099C426.286 372.571 425.94 371.936 425.757 371.247L444.732 337.5L445.752 335.695C445.228 336.866 451.029 340.256 451.649 339.002Z" fill="#455A64"/>
<path d="M451.636 339.002L451.208 339.774L450.671 340.725L431.668 374.513C431.031 374.698 430.361 374.743 429.705 374.645C429.049 374.548 428.421 374.31 427.865 373.948L447.763 338.12C447.653 338.051 447.653 337.996 447.763 337.955C449.362 338.878 451.305 339.663 451.636 339.002Z" fill="#37474F"/>
<path d="M449.982 341.965L449.004 343.715C448.728 344.225 447.474 343.935 446.179 343.357C444.442 342.585 442.761 341.041 443.106 340.352L443.836 339.071L444.098 338.616C443.74 339.305 445.476 340.849 447.157 341.62C448.411 342.185 449.624 342.461 449.913 342.02C449.913 342.02 449.968 341.992 449.982 341.965Z" fill="#EBEBEB"/>
<path d="M449.734 342.406C449.114 343.591 443.23 340.242 443.85 339.043L444.828 337.307C444.208 338.506 450.092 341.854 450.712 340.656L449.734 342.406Z" fill="#37474F"/>
<path d="M451.649 339.002L450.671 340.724C450.079 341.896 444.374 338.713 444.732 337.472C444.726 337.445 444.726 337.417 444.732 337.39L445.724 335.667C445.228 336.866 451.029 340.256 451.649 339.002Z" fill="#EBEBEB"/>
<path d="M424.117 381.059C424.159 381.081 424.206 381.093 424.254 381.093C424.302 381.093 424.35 381.081 424.392 381.059C424.35 381.081 424.302 381.093 424.254 381.093C424.206 381.093 424.159 381.081 424.117 381.059Z" fill="#FFA8A7"/>
<path d="M453.689 335.433L451.649 339.002C451.388 339.512 450.134 339.236 448.893 338.658C447.157 337.886 445.462 336.356 445.807 335.667L447.86 332.084C448.687 330.638 451.842 331.933 453.262 333.545C453.514 333.781 453.689 334.087 453.766 334.423C453.842 334.76 453.815 335.112 453.689 335.433Z" fill="#F28F8F"/>
<path opacity="0.1" d="M451.443 335.888C450.653 335.711 449.916 335.354 449.287 334.845C448.658 334.336 448.156 333.688 447.819 332.953C447.754 332.773 447.733 332.581 447.757 332.392C447.781 332.203 447.85 332.022 447.956 331.864C448.962 330.762 451.856 332.016 453.207 333.531C453.462 333.759 453.645 334.057 453.733 334.387C453.822 334.718 453.811 335.067 453.703 335.392C453.386 335.943 452.545 336.122 451.443 335.888Z" fill="black"/>
<path d="M439.289 347.614C438.221 347.521 437.146 347.521 436.078 347.614C434.478 347.701 432.915 348.124 431.489 348.855C430.94 349.119 430.466 349.517 430.111 350.012C429.827 350.57 429.636 351.17 429.546 351.79C428.83 354.973 426.515 357.467 425.784 360.623C425.151 363.379 425.784 370.544 428.141 371.454C429.588 372.019 430.814 368.698 430.897 366.521C431.806 367.83 433.653 366.452 434.011 362.869C434.273 359.906 434.424 356.117 434.424 356.117L439.289 347.614Z" fill="#FFA8A7"/>
<path d="M433.033 353.774C432.861 354.067 432.77 354.4 432.77 354.739C432.77 355.078 432.861 355.411 433.033 355.703C433.361 356.367 433.831 356.951 434.411 357.412V356.103L433.033 353.774Z" fill="#F28F8F"/>
<path d="M457.065 352.493C452.807 350.067 450.809 346.981 446.509 347.821C442.21 348.662 440.887 350.247 436.174 351.597C429.464 353.54 434.535 357.991 440.529 357.192C446.523 356.392 449.128 353.788 449.128 353.788C449.128 353.788 456.968 359.396 457.065 352.493Z" fill="#FFA8A7"/>
<path d="M479.154 305.696L483.04 324.216L502.842 322.797L498.873 302.912L479.154 305.696Z" fill="#FFA8A7"/>
<path d="M522.768 324.133C520.88 314.157 515.106 307.46 506.962 308.975L500.334 310.216L500.94 313.247C502.691 318.153 485.782 321.97 481.649 317.588L481.111 314.997C477.969 315.893 467.51 318.318 464.892 319.242C457.451 321.915 452.752 330.431 452.6 351.142C452.449 371.854 452.972 403.217 452.972 403.217C452.972 403.217 457.106 403.975 460.496 399.083C462.977 429.606 487.464 436.537 505.13 430.598C511.819 428.563 517.534 424.152 521.197 418.196C525.331 411.306 525.331 403.727 524.146 395.817C523.429 390.98 520.88 379.446 518.138 365.143C525.042 343.012 524.628 333.972 522.768 324.133Z" fill="#A26769"/>
<g opacity="0.7">
<path opacity="0.7" d="M522.768 324.133C520.88 314.157 515.106 307.46 506.962 308.975L500.334 310.216L500.94 313.247C502.691 318.153 485.782 321.97 481.649 317.588L481.111 314.997C477.969 315.893 467.51 318.318 464.892 319.242C457.451 321.915 452.752 330.431 452.6 351.142C452.449 371.854 452.972 403.217 452.972 403.217C452.972 403.217 457.106 403.975 460.496 399.083C462.977 429.606 487.464 436.537 505.13 430.598C511.819 428.563 517.534 424.152 521.197 418.196C525.331 411.306 525.331 403.727 524.146 395.817C523.429 390.98 520.88 379.446 518.138 365.143C525.042 343.012 524.628 333.972 522.768 324.133Z" fill="white"/>
</g>
<path d="M471.231 274.222C471.231 274.222 459.738 263.57 466.807 254.848C474.483 245.353 490.165 244.278 506.191 249.336C514.128 251.871 522.727 259.257 522.975 274.732C523.195 286.666 508.34 297.51 492.273 303.767L471.231 274.222Z" fill="#A26769"/>
<g opacity="0.4">
<path opacity="0.4" d="M471.231 274.222C471.231 274.222 459.738 263.57 466.807 254.848C474.483 245.353 490.165 244.278 506.191 249.336C514.128 251.871 522.727 259.257 522.975 274.732C523.195 286.666 508.34 297.51 492.273 303.767L471.231 274.222Z" fill="black"/>
</g>
<path d="M465.705 277.474C465.705 277.474 459.545 286.404 460.303 287.368C461.061 288.333 464.851 289.435 464.851 289.435L465.705 277.474Z" fill="#F28F8F"/>
<path d="M464.975 282.752H464.74C463.763 282.706 462.821 282.372 462.034 281.791C461.247 281.21 460.65 280.409 460.318 279.488C459.986 278.568 459.934 277.57 460.17 276.62C460.405 275.671 460.917 274.812 461.64 274.153C462.363 273.496 463.265 273.068 464.232 272.923C465.198 272.778 466.186 272.923 467.07 273.338C467.955 273.754 468.696 274.422 469.201 275.259C469.706 276.096 469.952 277.063 469.908 278.039C469.838 279.304 469.289 280.496 468.373 281.371C467.457 282.246 466.242 282.74 464.975 282.752ZM464.975 273.63C464.161 273.616 463.362 273.843 462.677 274.282C461.992 274.721 461.452 275.352 461.124 276.096C460.796 276.84 460.694 277.665 460.833 278.467C460.971 279.268 461.343 280.011 461.902 280.602C462.647 281.425 463.687 281.92 464.796 281.98C465.342 282.008 465.888 281.927 466.403 281.742C466.918 281.557 467.391 281.272 467.795 280.903C468.199 280.534 468.525 280.088 468.755 279.592C468.986 279.095 469.115 278.558 469.136 278.012C469.166 277.465 469.087 276.919 468.904 276.403C468.72 275.887 468.436 275.413 468.069 275.008C467.701 274.603 467.256 274.275 466.76 274.043C466.265 273.811 465.728 273.68 465.181 273.657L464.975 273.63Z" fill="black"/>
<path d="M480.215 256.432C475.599 258.706 467.62 262.909 465.25 279.707C462.825 296.932 466.628 303.009 468.861 305.324C470.432 306.881 478.617 307.597 482.916 306.357C488.304 304.8 500.017 299.302 505.64 290.483C512.24 280.12 513.908 266.175 506.563 260.552C496.324 252.629 484.115 254.517 480.215 256.432Z" fill="#FFA8A7"/>
<path d="M522.548 270.185C522.359 269.087 522.105 268.001 521.79 266.933C519.419 258.499 515.974 254.393 510.504 251.306C509.118 250.515 507.654 249.869 506.136 249.377C497.096 246.497 488.759 245.629 481.855 247.406H481.69H481.511C479.265 248.164 468.061 252.408 469.109 262.371C469.341 265.057 470.199 267.65 471.613 269.945C473.027 272.239 474.959 274.171 477.253 275.586C477.497 278.056 478.12 280.472 479.099 282.752C479.099 282.752 482.021 276.661 487.257 278.535C492.493 280.409 491.928 287.492 487.67 291.034C486.361 292.188 484.732 292.918 482.999 293.128C481.774 293.267 480.534 293.102 479.389 292.646C480.971 297.206 483.471 301.394 486.733 304.952C486.733 304.952 490.743 310.877 499.7 307.336C503.696 304.19 507.463 300.764 510.972 297.083C517.532 289.449 522.685 283.11 522.878 275.71C522.948 273.862 522.837 272.011 522.548 270.185Z" fill="#A26769"/>
<path opacity="0.4" d="M522.548 270.185C522.359 269.087 522.105 268.001 521.79 266.933C519.419 258.499 515.974 254.393 510.504 251.306C509.118 250.515 507.654 249.869 506.136 249.377C497.096 246.497 488.759 245.629 481.855 247.406H481.69H481.511C479.265 248.164 468.061 252.408 469.109 262.371C469.341 265.057 470.199 267.65 471.613 269.945C473.027 272.239 474.959 274.171 477.253 275.586C477.497 278.056 478.12 280.472 479.099 282.752C479.099 282.752 482.021 276.661 487.257 278.535C492.493 280.409 491.928 287.492 487.67 291.034C486.361 292.188 484.732 292.918 482.999 293.128C481.774 293.267 480.534 293.102 479.389 292.646C480.971 297.206 483.471 301.394 486.733 304.952C486.733 304.952 490.743 310.877 499.7 307.336C503.696 304.19 507.463 300.764 510.972 297.083C517.532 289.449 522.685 283.11 522.878 275.71C522.948 273.862 522.837 272.011 522.548 270.185Z" fill="black"/>
<path d="M481.208 280.478L460.538 277.35C460.485 277.344 460.435 277.326 460.39 277.3C460.344 277.273 460.305 277.237 460.274 277.194C460.243 277.152 460.221 277.103 460.209 277.052C460.198 277.001 460.197 276.947 460.207 276.896C460.214 276.845 460.23 276.796 460.256 276.751C460.282 276.707 460.317 276.668 460.358 276.638C460.399 276.607 460.446 276.584 460.495 276.572C460.545 276.559 460.597 276.557 460.648 276.565L481.318 279.707C481.409 279.724 481.492 279.773 481.551 279.844C481.611 279.916 481.644 280.006 481.644 280.099C481.644 280.193 481.611 280.283 481.551 280.355C481.492 280.426 481.409 280.475 481.318 280.492L481.208 280.478Z" fill="black"/>
<path d="M480.822 306.771C477.126 307.273 473.364 306.967 469.798 305.875C473.598 306.371 477.454 305.58 480.753 303.629L480.822 306.771Z" fill="#F28F8F"/>
<path d="M422.643 415.026C437.291 410.327 461.061 404.278 463.652 397.884C466.849 389.988 474.318 349.213 474.318 349.213C474.318 349.213 478.782 320.44 464.892 319.242C458.898 320.44 453.785 323.376 452.559 334.248C452.008 339.25 450.988 360.981 447.75 385.702L411.398 403.975C408.863 403.727 408.187 400.626 406.065 397.567C403.943 394.508 402.414 390.581 400.732 391.655C399.051 392.73 400.112 397.76 400.732 400.144C401.04 401.734 400.714 403.38 399.823 404.733C399.823 404.733 398.224 404.126 396.75 403.713C395.965 403.492 383.494 396.341 383.494 396.341C383.494 396.341 382.24 404.126 386.098 408.026C390.935 413.634 397.825 415.715 404.122 416.625C410.339 417.441 416.658 416.896 422.643 415.026Z" fill="#FFA8A7"/>
<path d="M495.649 219.984L491.06 211.344L494.753 200.665V194.188L483.44 200.72V207.251L488.304 215.685C488.379 215.815 488.496 215.917 488.635 215.974L495.649 219.984Z" fill="#A26769"/>
<path opacity="0.2" d="M495.649 219.984L491.06 211.344L494.753 200.665V194.188L483.44 200.72V207.251L488.304 215.685C488.379 215.815 488.496 215.917 488.635 215.974L495.649 219.984Z" fill="black"/>
<path d="M522.685 142.182C522.621 141.005 522.279 139.859 521.687 138.839C521.096 137.819 520.271 136.953 519.282 136.312L516.526 134.714C515.472 134.184 514.308 133.908 513.129 133.908C511.949 133.908 510.786 134.184 509.732 134.714L467.359 159.228C466.371 159.87 465.549 160.736 464.959 161.757C464.37 162.777 464.031 163.922 463.969 165.098V211.716C464.033 212.894 464.373 214.04 464.962 215.062C465.551 216.085 466.372 216.954 467.359 217.6L470.115 219.199C471.166 219.729 472.327 220.006 473.504 220.006C474.682 220.006 475.843 219.729 476.894 219.199L490.523 211.317L495.387 219.736C495.458 219.854 495.561 219.948 495.684 220.01C495.806 220.072 495.944 220.098 496.081 220.085C496.217 220.072 496.347 220.021 496.456 219.937C496.565 219.853 496.648 219.741 496.696 219.612L501.822 204.785L519.268 194.684C520.258 194.043 521.082 193.177 521.673 192.157C522.265 191.137 522.607 189.991 522.672 188.814L522.685 142.182Z" fill="#A26769"/>
<path opacity="0.2" d="M463.969 211.716C464.033 212.894 464.373 214.04 464.962 215.062C465.551 216.084 466.372 216.954 467.359 217.6L470.115 219.199C471.07 219.68 472.118 219.952 473.187 219.997C474.256 220.043 475.323 219.86 476.316 219.461C474.717 220.067 473.56 219.171 473.56 217.228V170.61C473.606 169.429 473.947 168.278 474.552 167.262L465.002 161.75C464.396 162.765 464.055 163.917 464.01 165.098L463.969 211.716Z" fill="black"/>
<path opacity="0.5" d="M522.575 141.218C522.176 139.84 520.853 139.316 519.295 140.226L476.922 164.74C475.916 165.358 475.093 166.233 474.538 167.276L464.988 161.764C465.557 160.727 466.383 159.854 467.386 159.228L509.746 134.714C510.8 134.184 511.963 133.908 513.143 133.908C514.322 133.908 515.485 134.184 516.539 134.714L519.295 136.312C520.143 136.868 520.871 137.588 521.434 138.431C521.998 139.274 522.386 140.222 522.575 141.218Z" fill="white"/>
<path d="M483.812 182.172C483.838 179.284 484.443 176.43 485.59 173.78C486.636 170.993 488.506 168.59 490.95 166.89C494.602 164.74 497.661 169.122 498.129 174.276C498.57 168.585 501.561 160.647 505.226 158.498C506.028 157.895 507.027 157.615 508.025 157.715C509.023 157.814 509.947 158.286 510.614 159.035C511.937 160.843 512.59 163.055 512.461 165.291C512.461 174.014 507.252 181.938 502.815 190.261L498.157 198.322L493.596 195.745C489.145 192.631 483.812 190.908 483.812 182.172Z" fill="#FAFAFA"/>
<path d="M71.9141 413.965L111.724 390.98V417.259L71.9141 440.23V413.965Z" fill="#EBEBEB"/>
<path d="M75.924 420.869C75.8084 420.869 75.6958 420.832 75.6039 420.761C75.512 420.691 75.4459 420.592 75.416 420.481C75.3861 420.369 75.394 420.25 75.4386 420.144C75.4831 420.037 75.5618 419.948 75.6622 419.891L107.535 401.508C107.595 401.472 107.661 401.448 107.729 401.438C107.798 401.428 107.868 401.432 107.935 401.45C108.002 401.468 108.065 401.5 108.12 401.543C108.174 401.586 108.219 401.64 108.252 401.701C108.318 401.822 108.335 401.965 108.299 402.098C108.263 402.231 108.177 402.346 108.059 402.418L76.1445 420.8C76.0765 420.838 76.0015 420.861 75.924 420.869Z" fill="#455A64"/>
<path d="M75.9241 425.334C75.8306 425.333 75.7391 425.306 75.6591 425.258C75.5792 425.209 75.5136 425.14 75.4694 425.058C75.4032 424.937 75.3864 424.795 75.4223 424.661C75.4582 424.528 75.5442 424.413 75.6623 424.342L107.535 405.959C107.595 405.925 107.661 405.902 107.729 405.893C107.798 405.885 107.867 405.889 107.934 405.907C108 405.925 108.063 405.956 108.117 405.998C108.172 406.04 108.218 406.092 108.252 406.152C108.286 406.212 108.309 406.278 108.318 406.346C108.326 406.414 108.322 406.484 108.304 406.55C108.286 406.617 108.255 406.679 108.213 406.734C108.171 406.788 108.119 406.834 108.059 406.869L76.1446 425.251C76.0796 425.297 76.0036 425.326 75.9241 425.334Z" fill="#455A64"/>
<path d="M75.924 429.826C75.8084 429.826 75.6958 429.789 75.6039 429.718C75.512 429.648 75.4459 429.549 75.416 429.438C75.3861 429.326 75.394 429.207 75.4386 429.101C75.4831 428.994 75.5618 428.905 75.6622 428.848L107.535 410.465C107.595 410.431 107.661 410.408 107.729 410.399C107.798 410.39 107.867 410.395 107.934 410.413C108 410.431 108.063 410.462 108.117 410.504C108.172 410.546 108.218 410.598 108.252 410.658C108.318 410.779 108.335 410.922 108.299 411.055C108.263 411.188 108.177 411.303 108.059 411.375L76.1445 429.716C76.08 429.768 76.0047 429.806 75.924 429.826Z" fill="#455A64"/>
<path d="M77.6052 200.568L333.486 52.8328V249.818L77.6052 397.553V200.568Z" fill="#455A64"/>
<path d="M83.2964 387.701L327.809 246.538V62.6855L83.2826 203.848L83.2964 387.701Z" fill="#A26769"/>
<path d="M77.6052 397.553L71.9141 394.274V197.289L77.6052 200.568V397.553Z" fill="#263238"/>
<path d="M333.486 52.8328L327.795 49.5531L71.9141 197.288L77.6052 200.568L333.486 52.8328Z" fill="#37474F"/>
<path d="M327.809 62.6855L322.117 65.9651V243.245L327.809 246.538V62.6855Z" fill="#263238"/>
<path d="M322.118 243.245L327.809 246.538L83.2964 387.701L83.2826 381.141L322.118 243.245Z" fill="#37474F"/>
<path d="M83.2964 381.141L322.118 243.245V63.6776L83.2826 201.56L83.2964 381.141Z" fill="#A26769"/>
<path opacity="0.15" d="M322.118 63.6776L171.447 273.878L322.118 191.804V63.6776Z" fill="black"/>
<path opacity="0.1" d="M322.118 63.6776L210.183 219.846L195.19 162.852L322.118 63.6776Z" fill="black"/>
<path opacity="0.15" d="M195.19 162.852L83.2826 201.56L322.118 63.6776L195.19 162.852Z" fill="black"/>
<path opacity="0.2" d="M83.2826 201.56L195.19 162.852L210.183 219.846L83.2826 201.56Z" fill="black"/>
<path opacity="0.15" d="M83.2826 201.56L210.183 219.846L83.2964 317.684L83.2826 201.56Z" fill="black"/>
<path opacity="0.4" d="M322.118 243.245L250.971 284.323L218.01 246.993L322.118 197.647V243.245Z" fill="black"/>
<path opacity="0.3" d="M250.971 284.323L125.394 356.833L218.01 246.993L250.971 284.323Z" fill="black"/>
<path opacity="0.5" d="M125.394 356.833L218.01 246.993L83.2964 325.236V381.141L125.394 356.833Z" fill="black"/>
<path d="M126.91 214.265C126.91 214.265 117.264 215.643 109.534 226.667C101.803 237.691 101.266 254.159 101.266 254.159C92.5176 261.866 86.2782 272.017 83.3516 283.303V325.236L175.14 272.169L174.396 229.051C174.396 229.051 181.176 226.061 181.934 218.896C182.692 211.73 179.729 211.496 179.729 211.496C179.729 211.496 179.591 222.299 170.303 221.486C173.16 216.538 174.591 210.896 174.437 205.184C173.872 196.407 165.012 194.863 156.523 204.757C156.523 204.757 159.059 193.554 152.031 190.977C145.003 188.4 129.005 201.684 126.91 214.265Z" fill="#A26769"/>
<path opacity="0.4" d="M126.91 214.265C126.91 214.265 117.264 215.643 109.534 226.667C101.803 237.691 101.266 254.159 101.266 254.159C92.5176 261.866 86.2782 272.017 83.3516 283.303V325.236L175.14 272.169L174.396 229.051C174.396 229.051 181.176 226.061 181.934 218.896C182.692 211.73 179.729 211.496 179.729 211.496C179.729 211.496 179.591 222.299 170.303 221.486C173.16 216.538 174.591 210.896 174.437 205.184C173.872 196.407 165.012 194.863 156.523 204.757C156.523 204.757 159.059 193.554 152.031 190.977C145.003 188.4 129.005 201.684 126.91 214.265Z" fill="black"/>
<path opacity="0.15" d="M130.769 294.782C130.769 294.782 125.257 278.687 115.721 273.437C106.185 268.187 114.66 252.078 114.66 252.078C104.876 249.418 110.884 231.408 110.884 231.408C100.094 243.079 103.594 263.722 103.594 263.722C103.594 263.722 107.728 267.856 105.978 276.62C104.228 285.384 90.5998 297.414 88.96 288.071C87.3202 278.728 95.7398 268.256 95.7398 268.256C89.9935 272.83 85.9973 280.079 83.3378 286.914V325.236L128.66 299.054L130.769 294.782Z" fill="black"/>
<path opacity="0.15" d="M128.867 218.22C128.867 218.22 131.788 201.974 147.539 197.55C156.303 195.07 158.563 206.742 153.519 213.893C153.519 213.893 160.974 201.602 167.727 204.096C174.479 206.59 170.744 218.524 166.541 222.161C168.898 216.649 169.229 209.897 166.376 208.988C163.524 208.078 159.844 212.433 159.665 216.36C159.665 216.36 163.799 212.943 164.199 216.608C164.598 220.274 160.506 224.284 160.506 224.284C160.506 224.284 173.252 222.906 166.541 237.251C159.831 251.596 140.98 258.954 140.98 258.954C140.98 258.954 130.162 274.305 125.298 273.823C120.434 273.34 116.079 270.763 118.091 263.143C120.103 255.523 126.8 248.964 126.359 248.757C125.918 248.55 116.134 251.513 115.79 242.749C115.445 233.985 119.028 221.996 128.867 218.22Z" fill="black"/>
<path d="M130.769 249.818C130.769 249.818 136.928 260.249 135.743 262.661C134.558 265.072 130.52 266.988 124.099 266.643C119.965 266.437 109.148 274.415 109.52 287.713C109.892 301.011 129.005 323.927 131.788 326.641C134.572 329.356 142.647 325.539 153.836 315.19C165.026 304.841 181.396 290.097 181.396 290.097C187.005 290.388 192.601 289.325 197.712 286.996C203.832 284.159 209.744 280.895 215.405 277.226C220.256 273.988 223.246 269.675 218.01 270.102C212.773 270.529 204.932 271.756 204.932 271.756C204.932 271.756 214.578 264.204 218.396 261.834C222.213 259.464 234.449 259.753 257.627 245.078C280.805 230.402 314.787 193.375 314.787 193.375C308.523 191.24 302.385 188.751 296.404 185.92C290.313 182.695 284.333 176.798 273.86 175.929C263.387 175.061 254.444 175.502 244.853 180.463C244.853 180.463 248.339 176.577 247.458 175.351C246.576 174.124 244.095 176.164 237.247 177.528C230.398 178.892 220.311 182.406 216.453 188.662C212.594 194.918 192.544 231.518 192.544 231.518C192.544 231.518 186.44 230.429 179.219 229.864C171.998 229.299 169.876 225.73 163.276 233.461C156.675 241.192 154.925 245.326 152.431 247.241C149.936 249.156 148.958 243.796 148.958 243.796L130.769 249.818Z" fill="#A26769"/>
<path opacity="0.6" d="M130.769 249.818C130.769 249.818 136.928 260.249 135.743 262.661C134.558 265.072 130.52 266.988 124.099 266.643C119.965 266.437 109.148 274.415 109.52 287.713C109.892 301.011 129.005 323.927 131.788 326.641C134.572 329.356 142.647 325.539 153.836 315.19C165.026 304.841 181.396 290.097 181.396 290.097C187.005 290.388 192.601 289.325 197.712 286.996C203.832 284.159 209.744 280.895 215.405 277.226C220.256 273.988 223.246 269.675 218.01 270.102C212.773 270.529 204.932 271.756 204.932 271.756C204.932 271.756 214.578 264.204 218.396 261.834C222.213 259.464 234.449 259.753 257.627 245.078C280.805 230.402 314.787 193.375 314.787 193.375C308.523 191.24 302.385 188.751 296.404 185.92C290.313 182.695 284.333 176.798 273.86 175.929C263.387 175.061 254.444 175.502 244.853 180.463C244.853 180.463 248.339 176.577 247.458 175.351C246.576 174.124 244.095 176.164 237.247 177.528C230.398 178.892 220.311 182.406 216.453 188.662C212.594 194.918 192.544 231.518 192.544 231.518C192.544 231.518 186.44 230.429 179.219 229.864C171.998 229.299 169.876 225.73 163.276 233.461C156.675 241.192 154.925 245.326 152.431 247.241C149.936 249.156 148.958 243.796 148.958 243.796L130.769 249.818Z" fill="white"/>
<path opacity="0.1" d="M133.538 254.999L130.782 249.818L148.958 243.796L149.344 245.174C149.344 245.174 139.477 254.82 133.538 254.999Z" fill="black"/>
<path d="M128.867 218.22C141.269 207.196 144.535 204.785 150.06 209.263C155.586 213.742 159.403 230.002 157.502 234.067C155.6 238.132 143.102 250.231 138.513 251.058C135.872 251.58 133.132 251.161 130.768 249.873C130.768 249.873 128.55 254.007 124.443 254.806C120.337 255.605 118.366 249.666 122.542 244.03C125.174 240.461 127.447 241.192 127.447 241.192C127.447 241.192 136.46 221.748 128.867 218.22Z" fill="#A26769"/>
<path opacity="0.6" d="M128.867 218.22C141.269 207.196 144.535 204.785 150.06 209.263C155.586 213.742 159.403 230.002 157.502 234.067C155.6 238.132 143.102 250.231 138.513 251.058C135.872 251.58 133.132 251.161 130.768 249.873C130.768 249.873 128.55 254.007 124.443 254.806C120.337 255.605 118.366 249.666 122.542 244.03C125.174 240.461 127.447 241.192 127.447 241.192C127.447 241.192 136.46 221.748 128.867 218.22Z" fill="white"/>
<path d="M148.958 218.992C148.958 218.992 157.323 218.772 157.929 219.461C158.535 220.15 152.651 226.599 151.494 226.654C150.336 226.709 148.958 218.992 148.958 218.992Z" fill="#A26769"/>
<path opacity="0.05" d="M148.958 218.992C148.958 218.992 157.323 218.772 157.929 219.461C158.535 220.15 152.651 226.599 151.494 226.654C150.336 226.709 148.958 218.992 148.958 218.992Z" fill="black"/>
<path opacity="0.5" d="M140.787 232.345C137.489 233.73 134.87 236.359 133.497 239.662C131.954 243.327 135.371 244.581 138.733 242.831C142.096 241.081 145.361 237.691 146.106 234.563C146.85 231.435 143.873 230.829 140.787 232.345Z" fill="#A26769"/>
<path opacity="0.5" d="M135.743 230.87C138.003 229.644 141.751 227.605 143.543 223.98C144.458 223.506 145.334 222.957 146.161 222.341C145.574 223.404 144.782 224.34 143.832 225.097C143.832 225.097 140.979 230.609 135.743 230.87Z" fill="black"/>
<path d="M296.404 185.92C290.299 182.695 284.333 176.798 273.86 175.93C263.387 175.061 254.444 175.502 244.853 180.463C226.553 190.274 207.303 221.238 202.769 231.118C200.195 236.859 196.735 242.16 192.517 246.828C193.812 238.56 188.824 237.471 188.824 237.471C188.824 237.471 184.938 245.477 163.854 259.354C142.771 273.23 135.812 262.688 135.812 262.688C135.358 263.528 134.693 264.236 133.883 264.742C135.261 280.189 138.899 293.404 143.529 297.814C148.159 302.223 159.238 294.741 159.238 294.741C159.238 294.741 172.549 283.193 183.642 278.067C190.416 274.959 197.607 272.856 204.987 271.825C204.987 271.825 214.633 264.273 218.451 261.903C222.268 259.533 234.504 259.822 257.682 245.146C280.86 230.471 314.842 193.444 314.842 193.444C308.558 191.288 302.402 188.776 296.404 185.92Z" fill="#A26769"/>
<path opacity="0.2" d="M296.404 185.92C290.299 182.695 284.333 176.798 273.86 175.93C263.387 175.061 254.444 175.502 244.853 180.463C226.553 190.274 207.303 221.238 202.769 231.118C200.195 236.859 196.735 242.16 192.517 246.828C193.812 238.56 188.824 237.471 188.824 237.471C188.824 237.471 184.938 245.477 163.854 259.354C142.771 273.23 135.812 262.688 135.812 262.688C135.358 263.528 134.693 264.236 133.883 264.742C135.261 280.189 138.899 293.404 143.529 297.814C148.159 302.223 159.238 294.741 159.238 294.741C159.238 294.741 172.549 283.193 183.642 278.067C190.416 274.959 197.607 272.856 204.987 271.825C204.987 271.825 214.633 264.273 218.451 261.903C222.268 259.533 234.504 259.822 257.682 245.146C280.86 230.471 314.842 193.444 314.842 193.444C308.558 191.288 302.402 188.776 296.404 185.92Z" fill="white"/>
<path opacity="0.1" d="M188.755 237.443C188.755 237.443 187.018 234.687 175.181 240.048C175.181 240.048 184.18 236.617 186.977 240.048L188.755 237.443Z" fill="black"/>
<path opacity="0.1" d="M159.169 294.672C164.13 290.62 170.4 282.421 171.447 273.878C171.447 273.878 173.886 278.012 168.691 287.203L159.169 294.672Z" fill="black"/>
<path opacity="0.1" d="M192.448 246.8C191.234 251.859 188.797 256.544 185.351 260.442C190.733 256.331 194.27 250.258 195.19 243.548L192.448 246.8Z" fill="black"/>
<path opacity="0.1" d="M243.916 215.423C243.916 215.423 251.151 221.183 251.275 220.687C251.399 220.191 271.159 206.204 271.159 206.204L271.683 203.448L252.721 216.787L243.916 215.423Z" fill="black"/>
<path d="M138.141 287.699C138.141 287.699 140.414 305.048 142.757 305.227C145.1 305.406 159.169 294.672 159.169 294.672C159.169 294.672 150.143 299.894 145.582 297.951C141.021 296.008 138.141 287.699 138.141 287.699Z" fill="#A26769"/>
<path opacity="0.5" d="M138.141 287.699C138.141 287.699 140.414 305.048 142.757 305.227C145.1 305.406 159.169 294.672 159.169 294.672C159.169 294.672 150.143 299.894 145.582 297.951C141.021 296.008 138.141 287.699 138.141 287.699Z" fill="black"/>
<path d="M151.521 232.248C151.769 230.749 152.466 229.361 153.519 228.266C155.076 226.984 155.517 228.266 155.517 228.266L151.521 232.248Z" fill="#A26769"/>
<path opacity="0.2" d="M151.521 232.248C151.769 230.749 152.466 229.361 153.519 228.266C155.076 226.984 155.517 228.266 155.517 228.266L151.521 232.248Z" fill="black"/>
<path d="M152.21 233.282C152.974 233.082 153.667 232.675 154.215 232.106C154.762 231.537 155.141 230.828 155.311 230.057C155.304 230.562 155.196 231.06 154.992 231.522C154.789 231.984 154.494 232.399 154.126 232.744C152.858 233.985 152.21 233.282 152.21 233.282Z" fill="#A26769"/>
<path opacity="0.4" d="M152.21 233.282C152.974 233.082 153.667 232.675 154.215 232.106C154.762 231.537 155.141 230.828 155.311 230.057C155.304 230.562 155.196 231.06 154.992 231.522C154.789 231.984 154.494 232.399 154.126 232.744C152.858 233.985 152.21 233.282 152.21 233.282Z" fill="black"/>
<path d="M291.209 261.09C291.209 261.09 275.458 268.132 269.96 254.2C269.96 254.2 284.953 252.822 289.872 246.056C290.92 244.678 292.807 241.591 292.78 239.951C292.78 238.959 291.857 238.766 291.002 239.194C290.064 239.771 289.219 240.486 288.494 241.316C283.892 245.849 278.711 248.729 274.191 249.267C273.005 249.48 271.784 249.341 270.677 248.867C269.931 248.437 269.302 247.832 268.844 247.103C265.936 242.9 265.564 235.666 267.879 228.101C271.542 229.57 275.596 229.745 279.372 228.597C284.385 226.942 288.834 223.915 292.215 219.86C292.824 219.241 293.294 218.499 293.593 217.683C293.965 216.498 293.4 215.643 292.601 215.561C291.624 215.614 290.676 215.913 289.845 216.429C283.12 219.722 267.673 226.461 269.974 213.163C271.352 205.419 274.48 184.225 280.488 182.034C289.321 178.878 296.886 180.546 304.865 180.284C304.934 186.678 301.392 194.381 299.697 201.491C299.436 202.594 299.256 203.875 299.863 204.247C300.235 204.482 300.841 204.247 301.392 203.875C305.058 201.381 305.526 194.367 306.105 190.881C306.615 187.725 307.042 184.583 307.332 181.51C307.332 181.51 318.356 180.064 322.131 187.45V243.245L291.209 261.09Z" fill="#A26769"/>
<path opacity="0.1" d="M291.209 261.09C291.209 261.09 275.458 268.132 269.96 254.2C269.96 254.2 284.953 252.822 289.872 246.056C290.92 244.678 292.807 241.591 292.78 239.951C292.78 238.959 291.857 238.766 291.002 239.194C290.064 239.771 289.219 240.486 288.494 241.316C283.892 245.849 278.711 248.729 274.191 249.267C273.005 249.48 271.784 249.341 270.677 248.867C269.931 248.437 269.302 247.832 268.844 247.103C265.936 242.9 265.564 235.666 267.879 228.101C271.542 229.57 275.596 229.745 279.372 228.597C284.385 226.942 288.834 223.915 292.215 219.86C292.824 219.241 293.294 218.499 293.593 217.683C293.965 216.498 293.4 215.643 292.601 215.561C291.624 215.614 290.676 215.913 289.845 216.429C283.12 219.722 267.673 226.461 269.974 213.163C271.352 205.419 274.48 184.225 280.488 182.034C289.321 178.878 296.886 180.546 304.865 180.284C304.934 186.678 301.392 194.381 299.697 201.491C299.436 202.594 299.256 203.875 299.863 204.247C300.235 204.482 300.841 204.247 301.392 203.875C305.058 201.381 305.526 194.367 306.105 190.881C306.615 187.725 307.042 184.583 307.332 181.51C307.332 181.51 318.356 180.064 322.131 187.45V243.245L291.209 261.09Z" fill="black"/>
<path opacity="0.2" d="M307.318 181.51C307.028 184.583 306.601 187.725 306.091 190.881C305.526 194.367 305.044 201.381 301.379 203.875C300.827 204.247 300.221 204.482 299.849 204.247C299.243 203.875 299.422 202.594 299.684 201.491C301.379 194.381 304.92 186.678 304.851 180.284C296.873 180.546 289.307 178.906 280.474 182.034C279.795 182.306 279.19 182.736 278.711 183.288C280.695 187.105 308.71 240.268 322.118 243.245V187.45C318.342 180.064 307.318 181.51 307.318 181.51Z" fill="black"/>
<path d="M317.295 246.015C317.295 246.015 300.759 230.416 295.77 212.846C295.77 212.846 308.448 236.272 322.118 239.345V243.245L317.295 246.015Z" fill="#A26769"/>
<path opacity="0.4" d="M317.295 246.015C317.295 246.015 300.759 230.416 295.77 212.846C295.77 212.846 308.448 236.272 322.118 239.345V243.245L317.295 246.015Z" fill="black"/>
<path d="M322.118 153.468C322.118 145.297 312.83 116.676 292.918 116.786C273.006 116.896 256.442 139.068 268.844 146.867C281.246 154.667 296.776 158.429 306.271 164.451C314.208 169.467 319.403 173.725 322.104 184.28L322.118 153.468Z" fill="#A26769"/>
<path opacity="0.3" d="M322.118 153.468C322.118 145.297 312.83 116.676 292.918 116.786C273.006 116.896 256.442 139.068 268.844 146.867C281.246 154.667 296.776 158.429 306.271 164.451C314.208 169.467 319.403 173.725 322.104 184.28L322.118 153.468Z" fill="black"/>
<path opacity="0.1" d="M292.918 116.786C288.167 116.926 283.507 118.125 279.278 120.294C275.05 122.464 271.358 125.549 268.472 129.326C275.362 125.591 318.177 137.594 322.118 166.394V153.468C322.118 145.297 312.83 116.676 292.918 116.786Z" fill="black"/>
<path d="M287.075 131.709C287.075 131.709 314.359 136.574 322.118 158.608V167.717C322.118 167.717 316.165 143.202 287.075 131.709Z" fill="#A26769"/>
<path opacity="0.2" d="M287.075 131.709C287.075 131.709 314.359 136.574 322.118 158.608V167.717C322.118 167.717 316.165 143.202 287.075 131.709Z" fill="black"/>
<path opacity="0.4" d="M287.075 131.709C287.075 131.709 314.359 136.574 322.118 158.608V167.717C322.118 167.717 316.165 143.202 287.075 131.709Z" fill="black"/>
<path d="M104.573 298.558C104.573 298.558 108.858 287.01 109.52 266.492C110.181 245.973 102.63 228.473 92.9838 231.794C83.3378 235.115 83.3378 242.818 83.3378 242.818V257.838C83.3378 257.838 87.6096 262.468 92.281 272.679C96.9524 282.89 96.415 306.385 96.415 306.385L104.573 298.558Z" fill="#A26769"/>
<path opacity="0.1" d="M85.9008 236.438C84.3813 238.22 83.4691 240.44 83.2964 242.776V257.797C83.2964 257.797 87.5682 262.427 92.2396 272.638C96.911 282.849 96.3736 306.343 96.3736 306.343L101.803 301.162C110.843 246.097 86.0937 236.506 85.9008 236.438Z" fill="black"/>
<path d="M92.8596 241.812C92.8596 241.812 106.915 262.633 100.011 304.111L102.313 302.223C102.313 302.223 111.449 255.523 92.8596 241.812Z" fill="#A26769"/>
<path opacity="0.4" d="M92.8596 241.812C92.8596 241.812 106.915 262.633 100.011 304.111L102.313 302.223C102.313 302.223 111.449 255.523 92.8596 241.812Z" fill="black"/>
<path d="M99.0883 372.019C106.069 364.433 111.595 355.628 115.39 346.044C123.217 325.635 117.498 297.896 112.427 293.018C112.427 293.018 95.2161 302.209 83.2964 325.236V381.141L99.0883 372.019Z" fill="#A26769"/>
<path opacity="0.15" d="M99.0883 372.019C106.069 364.433 111.595 355.628 115.39 346.044C123.217 325.635 117.498 297.896 112.427 293.018C112.427 293.018 95.2161 302.209 83.2964 325.236V381.141L99.0883 372.019Z" fill="black"/>
<path opacity="0.15" d="M83.2964 374.113V381.141L99.0883 372.019C106.069 364.433 111.595 355.628 115.39 346.044C123.217 325.635 117.498 297.896 112.427 293.018L108.197 304.993C84.9362 347.987 83.2964 374.113 83.2964 374.113Z" fill="black"/>
<path d="M83.2964 364.578C83.2964 363.847 89.9935 335.295 108.197 304.993C108.197 304.993 90.7651 338.258 83.2964 374.114C83.5169 373.025 83.2964 364.578 83.2964 364.578Z" fill="#A26769"/>
<path opacity="0.4" d="M83.2964 364.578C83.2964 363.847 89.9935 335.295 108.197 304.993C108.197 304.993 90.7651 338.258 83.2964 374.114C83.5169 373.025 83.2964 364.578 83.2964 364.578Z" fill="black"/>
<path d="M239.093 130.621C238.937 133.525 238.098 136.351 236.645 138.87C235.191 141.388 233.164 143.529 230.729 145.117C226.112 147.777 222.364 145.614 222.364 140.281C222.521 137.379 223.361 134.555 224.814 132.039C226.267 129.522 228.294 127.384 230.729 125.798C235.359 123.125 239.093 125.288 239.093 130.621Z" fill="#A26769"/>
<path d="M247.975 140.868C249.429 138.35 249.427 135.628 247.97 134.787C246.513 133.946 244.154 135.305 242.701 137.823C241.247 140.341 241.249 143.063 242.706 143.904C244.163 144.745 246.522 143.386 247.975 140.868Z" fill="#A26769"/>
<path d="M173.032 181.593C172.957 182.882 172.582 184.135 171.935 185.252C171.289 186.37 170.391 187.321 169.311 188.028C167.258 189.227 165.591 188.263 165.591 185.879C165.665 184.59 166.041 183.337 166.687 182.219C167.333 181.102 168.232 180.151 169.311 179.443C171.364 178.245 173.032 179.209 173.032 181.593Z" fill="#A26769"/>
<path d="M182.03 184.818C181.994 185.463 181.806 186.091 181.483 186.651C181.16 187.211 180.71 187.688 180.17 188.042C179.136 188.635 178.309 188.152 178.309 186.967C178.346 186.322 178.533 185.694 178.856 185.134C179.179 184.574 179.629 184.097 180.17 183.743C181.148 183.164 182.03 183.633 182.03 184.818Z" fill="#A26769"/>
</svg>
