<svg width="769" height="769" viewBox="0 0 769 769" fill="none" xmlns="http://www.w3.org/2000/svg">
<path d="M121.21 322.98C121.21 322.98 98.1397 421.412 162.351 507.248C226.563 593.083 338.437 626.381 428.425 655.788C518.413 685.194 602.604 651.251 634.194 575.658C665.785 500.065 601.973 459.37 587.9 360.646C573.828 261.921 585.055 233.499 519.413 158.322C453.771 83.1443 319.043 84.9591 227.962 162.121C136.882 239.282 121.21 322.98 121.21 322.98Z" fill="#A26769"/>
<path opacity="0.7" d="M121.21 322.98C121.21 322.98 98.1397 421.412 162.351 507.248C226.563 593.083 338.437 626.381 428.425 655.788C518.413 685.194 602.604 651.251 634.194 575.658C665.785 500.065 601.973 459.37 587.9 360.646C573.828 261.921 585.055 233.499 519.413 158.322C453.771 83.1443 319.043 84.9591 227.962 162.121C136.882 239.282 121.21 322.98 121.21 322.98Z" fill="white"/>
<path d="M628.888 397.619C628.888 397.619 628.888 391.19 619.875 382.239C610.863 373.288 605.095 368.09 605.095 368.09C605.095 368.09 600.589 382.87 608.94 391.882C615.11 398.216 621.798 404.025 628.934 409.246L628.888 397.619Z" fill="#A26769"/>
<path d="M615.815 437.792C615.815 437.792 615.815 431.363 606.818 422.412C597.82 413.461 592.022 408.262 592.022 408.262C592.022 408.262 587.516 422.95 595.883 432.009C602.05 438.346 608.738 444.154 615.877 449.373L615.815 437.792Z" fill="#A26769"/>
<path d="M628.319 408.585C628.319 408.585 628.996 402.187 638.9 394.174C648.805 386.161 655.188 381.67 655.188 381.67C655.188 381.67 658.095 396.866 648.836 404.925C642.055 410.577 634.811 415.65 627.181 420.089L628.319 408.585Z" fill="#A26769"/>
<path d="M612.539 456.017C612.539 456.017 613.877 449.727 624.566 442.806C635.255 435.885 642.007 432.04 642.007 432.04C642.007 432.04 643.299 447.42 633.241 454.51C625.919 459.408 618.203 463.689 610.171 467.306L612.539 456.017Z" fill="#A26769"/>
<path d="M615.508 507.74C615.508 507.74 615.508 501.311 624.505 492.36C633.502 483.409 639.3 478.21 639.3 478.21C639.3 478.21 643.807 493.006 635.44 502.019C629.269 508.351 622.581 514.159 615.446 519.383L615.508 507.74Z" fill="#A26769"/>
<path d="M615.354 520.367C615.354 520.367 616.261 514 608.633 503.803C601.004 493.606 596.006 487.7 596.006 487.7C596.006 487.7 589.438 501.696 596.436 511.8C601.625 518.935 607.403 525.623 613.708 531.794L615.354 520.367Z" fill="#A26769"/>
<path d="M606.479 557.771C606.479 557.771 606.479 551.342 615.477 542.391C624.474 533.44 630.272 528.241 630.272 528.241C630.272 528.241 634.779 543.037 626.412 552.034C620.245 558.372 613.557 564.18 606.418 569.398L606.479 557.771Z" fill="#A26769"/>
<path d="M612.477 591.699C612.477 591.699 610.863 585.47 617.291 574.489C623.72 563.508 628.057 557.048 628.057 557.048C628.057 557.048 636.163 570.213 630.349 581.056C626.009 588.742 621.029 596.048 615.461 602.896L612.477 591.699Z" fill="#A26769"/>
<path d="M629.703 395.973C629.249 402.678 628.428 409.353 627.243 415.967C623.674 434.347 614.785 446.22 611.217 462.83C607.648 479.441 617.876 500.834 615.138 522.182C612.401 543.529 604.096 555.372 606.479 569.614C608.863 583.855 621.352 622.398 621.352 622.398" stroke="#263238" stroke-width="0.5" stroke-linecap="round" stroke-linejoin="round"/>
<path d="M628.227 412.861L637.931 405.401" stroke="#263238" stroke-width="0.5" stroke-linecap="round" stroke-linejoin="round"/>
<path d="M628.688 404.279L624.628 397.05" stroke="#263238" stroke-width="0.5" stroke-linecap="round" stroke-linejoin="round"/>
<path d="M611.755 462.046C611.755 462.046 619.875 455.894 628.227 449.865" stroke="#263238" stroke-width="0.5" stroke-linecap="round" stroke-linejoin="round"/>
<path d="M615.815 449.373C615.815 449.373 609.048 436.1 601.373 427.302" stroke="#263238" stroke-width="0.5" stroke-linecap="round" stroke-linejoin="round"/>
<path d="M615.815 516.891C620.457 508.361 626.311 500.549 633.194 493.698" stroke="#263238" stroke-width="0.5" stroke-linecap="round" stroke-linejoin="round"/>
<path d="M614.246 525.996C611.773 520.195 608.826 514.609 605.434 509.293C600.696 502.295 600.02 501.388 600.02 501.388" stroke="#263238" stroke-width="0.5" stroke-linecap="round" stroke-linejoin="round"/>
<path d="M606.479 569.598C608.53 564.486 610.973 559.539 613.785 554.803C616.596 550.408 619.771 546.256 623.275 542.391" stroke="#263238" stroke-width="0.5" stroke-linecap="round" stroke-linejoin="round"/>
<path d="M615.415 602.896C614.944 598.017 615.783 593.101 617.845 588.654C621.229 582.102 625.074 573.536 626.658 570.198" stroke="#263238" stroke-width="0.5" stroke-linecap="round" stroke-linejoin="round"/>
<path d="M569.921 483.547C569.921 483.547 569.229 479.518 573.889 472.889C578.549 466.26 581.579 462.415 581.579 462.415C581.579 462.415 586.009 471.197 581.748 477.795C578.586 482.439 575.036 486.808 571.136 490.853L569.921 483.547Z" fill="#A26769"/>
<path d="M582.471 507.325C582.471 507.325 581.779 503.28 586.455 496.666C591.13 490.053 594.145 486.177 594.145 486.177C594.145 486.177 598.574 494.975 594.298 501.557C591.131 506.198 587.582 510.566 583.686 514.615L582.471 507.325Z" fill="#A26769"/>
<path d="M571.459 490.361C571.459 490.361 570.352 486.423 563.262 482.471C556.172 478.518 551.742 476.395 551.742 476.395C551.742 476.395 551.573 486.239 558.248 490.237C563.119 493.048 568.218 495.445 573.489 497.405L571.459 490.361Z" fill="#A26769"/>
<path d="M586.516 518.398C586.516 518.398 584.978 514.599 577.534 511.416C570.09 508.232 565.43 506.571 565.43 506.571C565.43 506.571 566.291 516.384 573.366 519.706C578.503 521.99 583.823 523.837 589.269 525.227L586.516 518.398Z" fill="#A26769"/>
<path d="M590.269 551.142C590.269 551.142 589.577 547.113 582.948 542.437C576.319 537.762 572.182 535.178 572.182 535.178C572.182 535.178 570.967 544.944 577.18 549.681C581.728 552.984 586.543 555.901 591.576 558.402L590.269 551.142Z" fill="#A26769"/>
<path d="M591.73 559.048C591.73 559.048 590.469 555.156 594.145 547.928C597.82 540.699 600.296 536.454 600.296 536.454C600.296 536.454 605.926 544.529 602.634 551.619C600.158 556.667 597.262 561.498 593.975 566.061L591.73 559.048Z" fill="#A26769"/>
<path d="M603.034 591.576C603.034 591.576 603.496 587.516 609.848 582.471C616.2 577.427 620.229 574.597 620.229 574.597C620.229 574.597 621.998 584.286 616.061 589.362C611.723 592.923 607.093 596.113 602.219 598.897L603.034 591.576Z" fill="#A26769"/>
<path d="M601.358 581.549C601.358 581.549 600.666 577.519 594.037 572.843C587.408 568.168 583.271 565.569 583.271 565.569C583.271 565.569 582.056 575.335 588.285 580.087C592.826 583.392 597.636 586.309 602.665 588.808L601.358 581.549Z" fill="#A26769"/>
<path d="M601.358 603.465C601.358 603.465 601.696 599.389 596.467 593.191C591.238 586.993 587.854 583.425 587.854 583.425C587.854 583.425 584.209 592.561 589.023 598.805C592.583 603.152 596.498 607.195 600.727 610.894L601.358 603.465Z" fill="#A26769"/>
<path d="M569.229 482.609C570.241 486.776 571.483 490.884 572.951 494.913C577.18 506.048 584.04 512.523 588.085 522.597C592.13 532.671 588.085 547.205 592.053 560.247C596.021 573.289 602.588 579.857 602.65 589.054C602.711 598.251 599.082 623.767 599.082 623.767" stroke="#263238" stroke-width="0.5" stroke-linecap="round" stroke-linejoin="round"/>
<path d="M571.982 493.021L565.092 489.407" stroke="#263238" stroke-width="0.5" stroke-linecap="round" stroke-linejoin="round"/>
<path d="M570.767 487.7L572.536 482.732" stroke="#263238" stroke-width="0.5" stroke-linecap="round" stroke-linejoin="round"/>
<path d="M587.654 522.089C587.654 522.089 581.902 519.152 575.996 516.23" stroke="#263238" stroke-width="0.5" stroke-linecap="round" stroke-linejoin="round"/>
<path d="M583.732 514.584C585.422 509.243 587.653 504.09 590.392 499.204" stroke="#263238" stroke-width="0.5" stroke-linecap="round" stroke-linejoin="round"/>
<path d="M591.069 556.925C587.23 552.069 582.707 547.795 577.642 544.237" stroke="#263238" stroke-width="0.5" stroke-linecap="round" stroke-linejoin="round"/>
<path d="M593.037 562.416C593.951 558.51 595.191 554.687 596.744 550.988C598.959 546.082 599.282 545.436 599.282 545.436" stroke="#263238" stroke-width="0.5" stroke-linecap="round" stroke-linejoin="round"/>
<path d="M602.327 595.929C604.572 593.157 607.052 590.584 609.74 588.239C611.456 586.978 613.066 585.579 614.554 584.055" stroke="#263238" stroke-width="0.5" stroke-linecap="round" stroke-linejoin="round"/>
<path d="M602.65 588.962C600.82 585.978 598.763 583.14 596.498 580.472C594.257 578.026 591.818 575.768 589.208 573.72" stroke="#263238" stroke-width="0.5" stroke-linecap="round" stroke-linejoin="round"/>
<path d="M600.65 610.817C600.42 607.702 599.358 604.706 597.574 602.142C594.744 598.405 591.422 593.437 590.053 591.499" stroke="#263238" stroke-width="0.5" stroke-linecap="round" stroke-linejoin="round"/>
<path d="M580.687 619.23H639.593V663.37C639.593 664.594 639.106 665.767 638.241 666.633C637.376 667.498 636.202 667.984 634.979 667.984H585.363C584.139 667.984 582.965 667.498 582.1 666.633C581.235 665.767 580.749 664.594 580.749 663.37V619.23H580.687Z" fill="#263238"/>
<path d="M639.07 626.904H580.626C579.402 626.904 578.228 626.418 577.363 625.553C576.498 624.687 576.012 623.514 576.012 622.29C576.012 621.066 576.498 619.893 577.363 619.028C578.228 618.162 579.402 617.676 580.626 617.676H639.07C640.293 617.676 641.467 618.162 642.332 619.028C643.198 619.893 643.684 621.066 643.684 622.29C643.684 623.514 643.198 624.687 642.332 625.553C641.467 626.418 640.293 626.904 639.07 626.904Z" fill="#263238"/>
<path d="M527.026 216.35C555.906 216.35 579.318 192.939 579.318 164.058C579.318 135.178 555.906 111.766 527.026 111.766C498.146 111.766 474.734 135.178 474.734 164.058C474.734 192.939 498.146 216.35 527.026 216.35Z" fill="#263238"/>
<path d="M544.069 206.083C567.281 196.667 578.465 170.217 569.049 147.004C559.633 123.792 533.183 112.608 509.971 122.024C486.759 131.44 475.575 157.891 484.991 181.103C494.407 204.315 520.857 215.499 544.069 206.083Z" fill="white"/>
<path d="M497.604 172.394L527.026 164.058V122.902" stroke="#263238" stroke-width="2" stroke-miterlimit="10"/>
<path d="M273.303 397.834H215.889L140.727 196.11H198.141L273.303 397.834Z" fill="#263238"/>
<path opacity="0.2" d="M273.303 397.834H215.889L140.727 196.11H198.141L273.303 397.834Z" fill="white"/>
<path d="M182.807 245.388H168.042C167.035 245.328 166.066 244.982 165.249 244.391C164.432 243.799 163.8 242.988 163.428 242.05L157.722 226.747C157.524 226.397 157.424 226 157.434 225.597C157.444 225.195 157.562 224.803 157.776 224.462C157.991 224.122 158.293 223.845 158.652 223.663C159.011 223.48 159.412 223.398 159.814 223.425H174.578C175.582 223.488 176.548 223.833 177.365 224.421C178.181 225.009 178.814 225.815 179.192 226.747L184.898 242.05C185.575 243.896 184.652 245.388 182.807 245.388Z" fill="#263238"/>
<path d="M201.939 206.307H144.526L140.727 196.11H198.141L201.939 206.307Z" fill="#263238"/>
<path d="M164.151 207.984L165.797 212.413" stroke="#263238" stroke-linecap="round" stroke-linejoin="round"/>
<path d="M166.365 207.984L168.011 212.413" stroke="#263238" stroke-linecap="round" stroke-linejoin="round"/>
<path d="M168.565 207.984L170.226 212.413" stroke="#263238" stroke-linecap="round" stroke-linejoin="round"/>
<path d="M170.78 207.984L172.425 212.413" stroke="#263238" stroke-linecap="round" stroke-linejoin="round"/>
<path d="M172.994 207.984L174.64 212.413" stroke="#263238" stroke-linecap="round" stroke-linejoin="round"/>
<path d="M175.209 207.984L176.855 212.413" stroke="#263238" stroke-linecap="round" stroke-linejoin="round"/>
<path d="M177.424 207.984L179.069 212.413" stroke="#263238" stroke-linecap="round" stroke-linejoin="round"/>
<path d="M179.638 207.984L181.284 212.413" stroke="#263238" stroke-linecap="round" stroke-linejoin="round"/>
<path d="M181.838 207.984L183.499 212.413" stroke="#263238" stroke-linecap="round" stroke-linejoin="round"/>
<path d="M184.052 207.984L185.698 212.413" stroke="#263238" stroke-linecap="round" stroke-linejoin="round"/>
<path d="M178.024 235.791L164.182 226.978C164.053 226.876 163.897 226.813 163.734 226.797C163.57 226.781 163.405 226.812 163.259 226.886C163.141 226.975 163.061 227.105 163.035 227.251C163.01 227.396 163.04 227.546 163.12 227.67L169.488 241.404C169.571 241.578 169.691 241.731 169.84 241.853C169.989 241.976 170.163 242.064 170.349 242.112H170.564C170.679 242.121 170.792 242.091 170.887 242.026C170.982 241.962 171.053 241.868 171.087 241.758L172.625 237.236H178.162C178.234 237.243 178.306 237.234 178.374 237.211C178.442 237.187 178.505 237.15 178.557 237.1C178.609 237.051 178.651 236.991 178.678 236.924C178.705 236.857 178.718 236.786 178.716 236.714C178.686 236.514 178.607 236.326 178.486 236.165C178.365 236.004 178.206 235.875 178.024 235.791Z" fill="white"/>
<path d="M177.747 236.406L163.843 227.593L170.211 241.328L171.795 236.468L177.747 236.406Z" fill="#263238"/>
<path d="M203.724 236.406L189.82 227.593L196.203 241.328L197.772 236.468L203.724 236.406Z" fill="white"/>
<path d="M210.845 244.219L209.599 241.389L207.953 243.773L210.845 244.219Z" fill="white"/>
<path d="M244.434 334.377L243.189 331.547L241.543 333.931L244.434 334.377Z" fill="white"/>
<path d="M254.754 362.045L253.493 359.215L251.863 361.584L254.754 362.045Z" fill="white"/>
<path d="M265.32 390.406L264.059 387.576L262.429 389.96L265.32 390.406Z" fill="white"/>
<path d="M206.123 302.432L204.862 299.602L203.231 301.971L206.123 302.432Z" fill="white"/>
<path d="M218.027 334.377L216.766 331.547L215.135 333.931L218.027 334.377Z" fill="white"/>
<path d="M228.332 362.045L227.086 359.215L225.44 361.584L228.332 362.045Z" fill="white"/>
<path d="M238.913 390.406L237.652 387.576L236.021 389.96L238.913 390.406Z" fill="white"/>
<path d="M178.023 274.579L180.438 276.133L187.082 262.275L184.668 260.706L178.023 274.579Z" fill="white"/>
<path d="M181.007 260.999C177.485 258.261 177.239 257.707 178.1 254.601C176.286 257.092 175.747 257.138 171.948 255.108C175.47 257.861 175.717 258.415 174.855 261.522C176.609 259.03 177.147 258.984 181.007 260.999Z" fill="white"/>
<path d="M192.604 262.49C190.435 260.799 190.281 260.46 190.804 258.538C189.682 260.076 189.359 260.076 186.975 258.861C189.143 260.553 189.297 260.891 188.759 262.813C189.881 261.275 190.22 261.245 192.604 262.49Z" fill="white"/>
<path d="M191.942 269.012C190.404 267.797 190.281 267.566 190.666 266.197C189.866 267.289 189.62 267.304 187.928 266.412C189.466 267.627 189.574 267.873 189.205 269.242C190.005 268.135 190.235 268.12 191.942 269.012Z" fill="white"/>
<path d="M226.793 330.485L228.285 331.547L234.929 317.674L233.438 316.613L226.793 330.485Z" fill="white"/>
<path d="M221.226 270.996L208.968 263.229L214.582 275.348L215.981 271.057L221.226 270.996Z" fill="white"/>
<path d="M211.998 271.718C207.507 271.718 202.862 269.058 201.647 265.797C200.432 262.537 203.108 259.922 207.63 259.922C212.152 259.922 216.766 262.583 217.981 265.828C219.196 269.073 216.504 271.718 211.998 271.718ZM207.861 260.599C203.754 260.599 201.294 262.936 202.355 265.797C203.416 268.658 207.63 270.996 211.737 270.996C215.843 270.996 218.319 268.673 217.243 265.797C216.166 262.921 211.967 260.599 207.861 260.599Z" fill="white"/>
<path d="M206.6 270.534C205.998 270.491 205.421 270.278 204.934 269.922C204.447 269.566 204.07 269.08 203.847 268.519C203.727 268.307 203.667 268.067 203.673 267.824C203.679 267.581 203.75 267.344 203.879 267.137C204.008 266.931 204.19 266.764 204.406 266.652C204.623 266.541 204.865 266.49 205.108 266.505C205.709 266.548 206.287 266.76 206.774 267.117C207.26 267.473 207.637 267.959 207.861 268.519C207.98 268.731 208.04 268.972 208.034 269.215C208.029 269.458 207.958 269.695 207.829 269.901C207.699 270.108 207.517 270.275 207.301 270.386C207.085 270.498 206.842 270.549 206.6 270.534ZM205.369 267.227C205.212 267.215 205.055 267.245 204.914 267.315C204.773 267.385 204.654 267.493 204.57 267.626C204.486 267.759 204.44 267.913 204.437 268.071C204.434 268.228 204.475 268.383 204.554 268.519C204.696 268.884 204.94 269.201 205.256 269.433C205.572 269.664 205.947 269.801 206.338 269.827C207.046 269.827 207.415 269.242 207.153 268.519C207.006 268.159 206.76 267.848 206.445 267.62C206.13 267.391 205.757 267.256 205.369 267.227Z" fill="white"/>
<path d="M206.8 272.641L206.307 271.965C206.668 271.873 206.995 271.679 207.249 271.406C207.503 271.133 207.672 270.793 207.738 270.427C207.758 269.81 207.574 269.205 207.215 268.704L207.799 268.458C208.273 269.12 208.516 269.92 208.491 270.734C208.421 271.18 208.224 271.597 207.924 271.935C207.624 272.273 207.234 272.518 206.8 272.641Z" fill="white"/>
<path d="M199.11 292.635L190.543 286.406L188.728 289.298L197.295 295.527L199.11 292.635Z" fill="white"/>
<path d="M185.391 300.71L186.79 301.725L189.866 296.742C189.7 296.599 189.584 296.408 189.534 296.195C189.485 295.982 189.504 295.759 189.589 295.557C189.82 295.173 190.451 295.173 190.974 295.557C191.209 295.69 191.391 295.902 191.486 296.155C191.582 296.408 191.585 296.686 191.496 296.942C191.36 297.098 191.172 297.202 190.966 297.233C190.76 297.264 190.55 297.22 190.374 297.111L187.298 302.094L188.605 303.048L196.295 300.879L196.772 296.265L188.328 290.113L184.56 292.22L185.391 300.71Z" fill="white"/>
<path d="M177.301 281.131H226.717" stroke="#263238" stroke-linecap="round" stroke-linejoin="round"/>
<path d="M220.272 286.406L218.458 289.298L227.024 295.527L228.839 292.635L220.272 286.406Z" fill="white"/>
<path d="M214.213 292.22L215.12 300.694L216.52 301.709L219.596 296.726C219.43 296.584 219.314 296.392 219.264 296.179C219.214 295.967 219.233 295.743 219.319 295.542C219.55 295.158 220.18 295.158 220.703 295.542C220.939 295.675 221.12 295.886 221.216 296.139C221.311 296.392 221.315 296.671 221.226 296.926C221.089 297.083 220.901 297.186 220.696 297.217C220.49 297.248 220.28 297.205 220.103 297.095L217.027 302.079L218.335 303.032L226.025 300.864L226.501 296.25L218.058 290.098L214.213 292.22Z" fill="white"/>
<path d="M212.09 294.727C212.182 294.127 212.259 293.481 212.321 292.758C212.39 292.066 212.318 291.367 212.11 290.703C211.901 290.04 211.559 289.426 211.106 288.898C210.104 287.779 208.801 286.973 207.353 286.576C207.122 286.576 206.938 286.576 206.969 286.852C206.991 286.97 207.046 287.078 207.128 287.165C207.21 287.252 207.314 287.315 207.43 287.345C208.607 287.688 209.669 288.341 210.506 289.236C210.872 289.675 211.147 290.183 211.313 290.73C211.479 291.277 211.535 291.851 211.475 292.42C211.475 293.127 211.321 293.773 211.244 294.358C210.829 297.434 210.583 299.279 215.689 302.34C215.77 302.398 215.866 302.43 215.966 302.432C216.02 302.435 216.073 302.422 216.12 302.394C216.166 302.367 216.204 302.327 216.227 302.279C216.246 302.165 216.228 302.048 216.175 301.946C216.122 301.843 216.038 301.761 215.935 301.709C211.521 299.049 211.69 297.788 212.09 294.727Z" fill="white"/>
<path d="M190.22 315.29L190.528 316.09C190.965 317.325 191.479 318.532 192.066 319.704L193.496 319.35C193.096 318.551 192.742 317.729 192.435 316.89H198.587L203.693 330.608H201.401L202.001 332.146H208.153L207.553 330.608H205.277L200.14 316.828H206.092L207.153 319.719H208.768L207.399 316.028L207.092 315.228L190.22 315.29Z" fill="white"/>
<path opacity="0.44" d="M222.333 353.309C223.656 356.847 220.795 359.707 215.874 359.707C210.952 359.707 205.969 356.847 204.662 353.309C203.354 349.772 206.2 346.927 211.121 346.927C216.043 346.927 221.026 349.787 222.333 353.309Z" fill="white"/>
<path d="M222.333 353.309C223.656 356.847 220.795 359.707 215.874 359.707C210.952 359.707 205.969 356.847 204.662 353.309C203.354 349.772 206.2 346.927 211.121 346.927C216.043 346.927 221.026 349.787 222.333 353.309Z" stroke="white" stroke-miterlimit="10"/>
<path d="M240.528 353.494L246.326 342.959C246.411 342.841 246.519 342.742 246.643 342.667C246.767 342.592 246.906 342.543 247.049 342.523C247.193 342.503 247.339 342.512 247.479 342.55C247.619 342.588 247.75 342.654 247.864 342.743C248.201 342.885 248.485 343.129 248.676 343.441C248.866 343.753 248.954 344.117 248.925 344.481L245.849 356.124L240.528 353.494Z" fill="white"/>
<path d="M239.574 354.386C241.85 354.078 246.311 356.032 246.434 359C246.414 359.325 246.308 359.638 246.127 359.909C245.946 360.179 245.696 360.396 245.403 360.538C243.37 361.455 241.135 361.837 238.913 361.645C239.2 361.423 239.413 361.119 239.526 360.773C239.638 360.428 239.644 360.056 239.543 359.707C239.237 358.858 238.882 358.026 238.482 357.216C238.067 356.032 238.282 354.447 239.574 354.355" fill="white"/>
<path d="M227.501 377.502C227.023 376.402 226.309 375.42 225.409 374.626L223.656 377.41C224.693 378.304 225.518 379.418 226.071 380.67C226.576 381.783 227.162 382.858 227.824 383.885L229.531 381.147C228.751 379.993 228.071 378.773 227.501 377.502Z" fill="white"/>
<path d="M225.486 380.716C224.995 379.62 224.277 378.639 223.379 377.84L221.626 380.64C222.665 381.535 223.495 382.648 224.056 383.9C224.554 385.014 225.135 386.088 225.794 387.115L227.516 384.377C226.725 383.224 226.045 381.998 225.486 380.716Z" fill="white"/>
<path d="M228.101 377.456C228.599 378.569 229.18 379.644 229.839 380.67L232.361 376.641L226.717 372.519L225.671 374.18C226.706 375.086 227.535 376.203 228.101 377.456Z" fill="white"/>
<path d="M223.456 383.946C222.978 382.846 222.264 381.864 221.364 381.07L219.826 383.408L220.088 388.714C220.099 388.808 220.129 388.899 220.177 388.981C220.225 389.064 220.289 389.135 220.365 389.191C220.442 389.247 220.529 389.287 220.621 389.308C220.714 389.33 220.81 389.331 220.903 389.314L225.394 387.545C224.646 386.403 223.998 385.199 223.456 383.946ZM221.472 387.576L221.334 384.746L223.902 386.622L221.472 387.576Z" fill="white"/>
<path d="M245.619 380.009L243.696 383.085L253.632 390.329L255.554 387.253L256.154 387.699L260.768 380.455L249.617 372.334L245.08 379.578L245.619 380.009ZM252.97 388.576L245.449 383.085L246.818 380.886L254.354 386.376L252.97 388.576Z" fill="white"/>
<path d="M151.816 198.817L152.185 199.786L150.801 201.478L153.446 203.17L153.8 204.154L149.647 201.478L151.816 198.817Z" fill="white"/>
<path d="M148.34 198.817L148.709 199.786L147.325 201.478L149.97 203.17L150.34 204.154L146.172 201.478L148.34 198.817Z" fill="white"/>
<path d="M384.5 317.089H265.751L229.454 215.828H348.203L384.5 317.089Z" fill="#263238"/>
<path d="M376.072 311.568H270.211L237.883 221.364H343.743L376.072 311.568Z" fill="#A26769"/>
<path d="M355.939 255.416L338.437 242.527L324.61 278.424L288.759 268.304L270.211 311.568H376.072L355.939 255.416Z" fill="white"/>
<path d="M282.992 240.682C280.531 233.822 272.98 228.255 266.074 228.255C259.168 228.255 255.646 233.822 258.107 240.682C260.568 247.541 268.12 253.109 275.025 253.109C281.931 253.109 285.468 247.618 282.992 240.682Z" fill="white"/>
<path d="M396.804 299.664H278.055L241.758 198.402H360.507L396.804 299.664Z" fill="#263238"/>
<path d="M388.376 294.142H282.515L250.187 203.923H356.047L388.376 294.142Z" fill="#A26769"/>
<path d="M368.244 237.99L350.741 225.102L336.914 260.999L301.064 250.879L282.515 294.142H388.376L368.244 237.99Z" fill="white"/>
<path d="M295.296 223.256C292.835 216.397 285.284 210.829 278.378 210.829C271.473 210.829 267.951 216.397 270.411 223.256C272.872 230.116 280.424 235.683 287.329 235.683C294.235 235.683 297.772 230.116 295.296 223.256Z" fill="white"/>
<path d="M397.342 182.514L400.188 189.435H399.373C398.938 188.504 398.396 187.627 397.758 186.821C397.07 186.036 396.227 185.402 395.282 184.96C394.28 184.538 393.2 184.334 392.113 184.36H387.945L396.204 206.923C396.547 208.18 397.173 209.343 398.035 210.322C398.857 210.953 399.874 211.279 400.911 211.244H401.941L402.233 212.044H389.714L389.422 211.244H390.468C391.713 211.244 392.452 210.86 392.698 210.106C392.738 209.005 392.506 207.912 392.021 206.923L383.762 184.36H380.224C379.271 184.308 378.315 184.412 377.395 184.668C377.069 184.807 376.778 185.018 376.544 185.284C376.31 185.55 376.138 185.865 376.041 186.206C375.796 187.259 375.866 188.36 376.241 189.374H375.411L373.227 182.453L397.342 182.514Z" fill="black"/>
<path d="M415.322 196.433H424.35" stroke="#263238" stroke-width="0.5" stroke-miterlimit="10"/>
<path d="M424.057 220.365H378.594L361.753 174.317H407.216L424.057 220.365Z" stroke="#263238" stroke-width="0.5" stroke-miterlimit="10"/>
<path d="M372.119 198.125H368.705L367.459 194.726H370.873L372.119 198.125Z" fill="white" stroke="#263238" stroke-width="0.5" stroke-miterlimit="10"/>
<path d="M417.644 198.125H414.23L412.984 194.726H416.398L417.644 198.125Z" fill="white" stroke="#263238" stroke-width="0.5" stroke-miterlimit="10"/>
<path d="M364.121 176.27H360.722L359.477 172.871H362.876L364.121 176.27Z" fill="white" stroke="#263238" stroke-width="0.5" stroke-miterlimit="10"/>
<path d="M409.646 176.27H406.247L405.001 172.871H408.4L409.646 176.27Z" fill="white" stroke="#263238" stroke-width="0.5" stroke-miterlimit="10"/>
<path d="M386.899 176.27H383.5L382.255 172.871H385.654L386.899 176.27Z" fill="white" stroke="#263238" stroke-width="0.5" stroke-miterlimit="10"/>
<path d="M380.778 221.795H377.364L376.118 218.396H379.532L380.778 221.795Z" fill="white" stroke="#263238" stroke-width="0.5" stroke-miterlimit="10"/>
<path d="M426.303 221.795H422.888L421.643 218.396H425.057L426.303 221.795Z" fill="white" stroke="#263238" stroke-width="0.5" stroke-miterlimit="10"/>
<path d="M401.587 221.18L404.894 230.223" stroke="#263238" stroke-width="0.5" stroke-miterlimit="10"/>
<path d="M403.556 221.795H400.142L398.896 218.396H402.31L403.556 221.795Z" fill="white" stroke="#263238" stroke-width="0.5" stroke-miterlimit="10"/>
<path d="M407.262 231.93H403.848L402.602 228.516H406.017L407.262 231.93Z" fill="#263238"/>
<path d="M375.872 211.736H414.06" stroke="#263238" stroke-width="0.5" stroke-miterlimit="10"/>
<path d="M426.149 196.433C425.953 195.933 425.619 195.499 425.186 195.18C424.754 194.862 424.24 194.672 423.704 194.634C423.487 194.621 423.27 194.666 423.076 194.765C422.882 194.864 422.719 195.013 422.603 195.197C422.486 195.381 422.422 195.593 422.415 195.81C422.409 196.028 422.461 196.243 422.566 196.433C422.762 196.932 423.097 197.364 423.53 197.68C423.963 197.996 424.476 198.182 425.011 198.217C425.228 198.234 425.445 198.192 425.639 198.095C425.834 197.998 425.998 197.85 426.115 197.667C426.232 197.483 426.297 197.272 426.303 197.055C426.309 196.837 426.256 196.623 426.149 196.433Z" fill="#263238"/>
<path opacity="0.2" d="M215.366 440.622L256.569 475.934L217.304 668.046H219.965L263.644 479.456L303.663 513.015L247.157 667.815L250.694 667.231L310.138 516.553L475.534 667.231H576.181L458.462 436.5L215.366 440.622Z" fill="black"/>
<path d="M219.965 668.046H217.304L213.321 437.33H223.948L219.965 668.046Z" fill="#263238" stroke="#263238" stroke-linecap="round" stroke-linejoin="round"/>
<path d="M448.912 668.046H446.251L442.267 437.33H452.895L448.912 668.046Z" fill="#263238" stroke="#263238" stroke-linecap="round" stroke-linejoin="round"/>
<path d="M465.122 433.762H209.26V439.745H465.122V433.762Z" fill="white" stroke="#263238" stroke-linecap="round" stroke-linejoin="round"/>
<path d="M151.493 557.633L146.879 567.445C146.879 567.445 152.569 573.597 155.153 573.597C157.737 573.597 158.768 571.013 161.874 569.967C164.981 568.922 170.133 559.125 170.133 559.125C170.133 559.125 167.057 553.957 163.981 553.434C160.905 552.911 156.291 551.373 153.646 550.85C151.001 550.327 151.493 557.633 151.493 557.633Z" fill="white" stroke="#263238" stroke-linecap="round" stroke-linejoin="round"/>
<path d="M151.493 557.633L154.569 562.8V567.414C154.569 567.414 157.645 568.952 158.706 567.414C159.767 565.876 164.397 560.693 164.397 560.693L162.32 556.079" stroke="#263238" stroke-linecap="round" stroke-linejoin="round"/>
<path d="M154.584 567.445L148.909 566.415" stroke="#263238" stroke-linecap="round" stroke-linejoin="round"/>
<path d="M240.543 650.574L230.1 653.65C230.1 653.65 229.193 662.017 230.9 663.955C232.607 665.892 235.237 664.97 238.052 666.615C240.866 668.261 251.663 665.646 251.663 665.646C251.663 665.646 253.508 659.91 251.847 657.249C250.186 654.588 248.279 650.051 246.957 647.775C245.634 645.499 240.543 650.574 240.543 650.574Z" fill="white" stroke="#263238" stroke-linecap="round" stroke-linejoin="round"/>
<path d="M240.543 650.574L238.713 656.326L235.222 659.402C235.222 659.402 236.098 662.755 237.944 662.478C239.79 662.201 246.757 662.309 246.757 662.309L248.879 657.695" stroke="#263238" stroke-linecap="round" stroke-linejoin="round"/>
<path d="M235.222 659.418L232.238 654.465" stroke="#263238" stroke-linecap="round" stroke-linejoin="round"/>
<path d="M134.944 555.556C134.944 555.556 126.162 561.247 127.715 564.354C129.269 567.46 130.299 569.521 131.853 570.506C133.406 571.49 138.005 573.089 139.543 572.044C141.081 570.998 144.71 568.429 145.218 564.354C145.725 560.278 147.294 559.74 145.741 557.633C144.187 555.526 134.944 555.556 134.944 555.556Z" fill="white" stroke="#263238" stroke-linecap="round" stroke-linejoin="round"/>
<path d="M127.654 564.354L133.806 568.491L138.974 567.968L141.035 562.277C141.035 561.462 140.711 560.679 140.134 560.102C139.557 559.525 138.774 559.201 137.959 559.201C136.284 559.132 134.642 559.679 133.345 560.739L134.39 563.815" stroke="#263238" stroke-linecap="round" stroke-linejoin="round"/>
<path d="M173.194 548.328C173.194 548.328 165.504 555.556 166.473 560.724C167.442 565.892 177.331 570.029 177.331 570.029L189.22 563.323L185.59 554.095L177.9 549.958L173.194 548.328Z" fill="white" stroke="#263238" stroke-linecap="round" stroke-linejoin="round"/>
<path d="M166.473 560.724L174.748 563.831L184.052 560.724L180.423 552.465" stroke="#263238" stroke-linecap="round" stroke-linejoin="round"/>
<path d="M173.194 548.328L172.671 559.186L178.885 561.247" stroke="#263238" stroke-linecap="round" stroke-linejoin="round"/>
<path d="M196.449 645.483C196.449 645.483 188.759 652.727 189.728 657.895C190.697 663.063 200.586 667.2 200.586 667.2L212.475 660.479L208.86 651.174L201.094 647.037L196.449 645.483Z" fill="white" stroke="#263238" stroke-linecap="round" stroke-linejoin="round"/>
<path d="M189.728 657.895L198.002 660.986L207.307 657.895L203.693 649.62" stroke="#263238" stroke-linecap="round" stroke-linejoin="round"/>
<path d="M196.449 645.483L195.926 656.341L202.139 658.418" stroke="#263238" stroke-linecap="round" stroke-linejoin="round"/>
<path d="M144.772 540.576C144.772 540.576 137.082 547.805 138.051 552.973C139.02 558.14 148.909 562.201 148.909 562.201L160.782 555.479L157.168 546.251L149.478 542.114L144.772 540.576Z" fill="white" stroke="#263238" stroke-linecap="round" stroke-linejoin="round"/>
<path d="M138.051 552.973L146.325 556.079L155.615 552.973L152 544.714" stroke="#263238" stroke-linecap="round" stroke-linejoin="round"/>
<path d="M144.772 540.576L144.249 551.435L150.447 553.495" stroke="#263238" stroke-linecap="round" stroke-linejoin="round"/>
<path d="M188.128 668.046H126.793L117.595 566.369H197.325L188.128 668.046Z" fill="#263238" stroke="#263238" stroke-linecap="round" stroke-linejoin="round"/>
<path d="M147.356 651.174C147.356 651.174 138.559 656.864 140.112 659.956C141.665 663.047 142.696 665.123 144.249 666.108C145.803 667.092 150.401 668.692 151.939 667.646C153.477 666.6 157.107 664.032 157.63 659.956C158.153 655.88 159.691 655.342 158.137 653.235C156.584 651.128 147.356 651.174 147.356 651.174Z" fill="white" stroke="#263238" stroke-linecap="round" stroke-linejoin="round"/>
<path d="M140.112 659.956L146.264 664.093L151.432 663.586L153.492 657.895C153.492 657.079 153.168 656.297 152.591 655.72C152.015 655.143 151.232 654.819 150.416 654.819C148.741 654.744 147.097 655.291 145.802 656.357L146.833 659.433" stroke="#263238" stroke-linecap="round" stroke-linejoin="round"/>
<path d="M309.969 363.46C310.079 364.156 309.973 364.869 309.665 365.503C309.357 366.137 308.863 366.661 308.248 367.005C307.633 367.349 306.927 367.496 306.226 367.427C305.525 367.357 304.862 367.075 304.327 366.617C303.791 366.159 303.409 365.548 303.232 364.866C303.054 364.184 303.09 363.464 303.335 362.803C303.579 362.142 304.02 361.572 304.599 361.17C305.177 360.768 305.865 360.553 306.57 360.553C307.404 360.494 308.229 360.765 308.865 361.309C309.502 361.853 309.898 362.626 309.969 363.46Z" fill="#808080" stroke="#263238" stroke-linecap="round" stroke-linejoin="round"/>
<path d="M313.244 372.319C313.355 373.015 313.249 373.728 312.941 374.362C312.633 374.996 312.139 375.52 311.524 375.864C310.909 376.208 310.203 376.355 309.502 376.286C308.801 376.216 308.138 375.933 307.603 375.476C307.067 375.018 306.685 374.407 306.507 373.725C306.33 373.043 306.366 372.323 306.61 371.662C306.855 371.001 307.296 370.431 307.875 370.029C308.453 369.627 309.141 369.412 309.845 369.412C310.68 369.353 311.505 369.624 312.141 370.168C312.778 370.712 313.174 371.485 313.244 372.319Z" fill="#808080" stroke="#263238" stroke-linecap="round" stroke-linejoin="round"/>
<path d="M316.505 381.178C316.615 381.874 316.509 382.587 316.201 383.221C315.894 383.854 315.399 384.379 314.784 384.723C314.169 385.067 313.464 385.214 312.763 385.145C312.061 385.075 311.398 384.792 310.863 384.334C310.328 383.876 309.945 383.265 309.768 382.584C309.591 381.902 309.627 381.182 309.871 380.521C310.115 379.86 310.557 379.29 311.135 378.888C311.713 378.486 312.401 378.27 313.106 378.271C313.941 378.211 314.766 378.483 315.402 379.027C316.038 379.571 316.434 380.344 316.505 381.178Z" fill="#808080" stroke="#263238" stroke-linecap="round" stroke-linejoin="round"/>
<path d="M319.781 390.037C319.891 390.732 319.785 391.444 319.478 392.078C319.171 392.711 318.678 393.235 318.064 393.58C317.45 393.924 316.745 394.072 316.044 394.004C315.344 393.936 314.681 393.655 314.145 393.198C313.609 392.742 313.226 392.132 313.047 391.452C312.867 390.771 312.901 390.052 313.143 389.391C313.385 388.73 313.824 388.159 314.4 387.754C314.976 387.35 315.663 387.132 316.367 387.13C317.203 387.07 318.03 387.341 318.668 387.885C319.307 388.429 319.707 389.201 319.781 390.037Z" fill="#808080" stroke="#263238" stroke-linecap="round" stroke-linejoin="round"/>
<path d="M273.703 433.193H250.417L246.911 394.574H277.209L273.703 433.193Z" fill="#263238" stroke="#263238" stroke-linecap="round" stroke-linejoin="round"/>
<path d="M276.056 407.278L249.294 420.904L250.417 433.193H262.875L274.964 419.305L276.056 407.278Z" fill="#A26769" stroke="#263238" stroke-linecap="round" stroke-linejoin="round"/>
<path d="M279.901 389.96H244.219V398.357H279.901V389.96Z" fill="#A26769" stroke="#263238" stroke-linecap="round" stroke-linejoin="round"/>
<path d="M342.636 433.716H300.725C300.003 433.755 299.281 433.646 298.603 433.397C297.924 433.147 297.304 432.762 296.779 432.265C296.254 431.768 295.836 431.169 295.551 430.505C295.265 429.84 295.118 429.125 295.118 428.402C295.118 427.679 295.265 426.964 295.551 426.3C295.836 425.636 296.254 425.037 296.779 424.54C297.304 424.042 297.924 423.657 298.603 423.408C299.281 423.158 300.003 423.05 300.725 423.088H342.636C343.358 423.05 344.08 423.158 344.758 423.408C345.437 423.657 346.057 424.042 346.582 424.54C347.107 425.037 347.525 425.636 347.81 426.3C348.096 426.964 348.243 427.679 348.243 428.402C348.243 429.125 348.096 429.84 347.81 430.505C347.525 431.169 347.107 431.768 346.582 432.265C346.057 432.762 345.437 433.147 344.758 433.397C344.08 433.646 343.358 433.755 342.636 433.716Z" fill="#263238" stroke="#263238" stroke-linecap="round" stroke-linejoin="round"/>
<path d="M454.11 433.762H325.087L294.312 350.003H423.335L454.11 433.762Z" fill="#263238" stroke="#263238" stroke-linecap="round" stroke-linejoin="round"/>
<path d="M445.928 425.057H335.745L309.476 353.54H419.643L445.928 425.057Z" fill="#808080" stroke="#263238" stroke-linecap="round" stroke-linejoin="round"/>
<path d="M467.552 463.676C464.56 468.077 461.173 472.195 457.432 475.98C445.623 486.649 435.469 499.017 427.302 512.677C415.737 532.286 407.678 552.327 400.018 569.675C392.359 587.024 378.486 619.045 371.55 628.796C364.614 638.547 359.923 643.761 359.923 643.761C359.923 643.761 348.465 644.022 334.899 642.822C321.334 641.623 315.721 639.177 315.551 642.715C315.382 646.252 324.779 655.957 331.454 657.649C338.129 659.341 346.834 661.924 348.864 663.939C350.895 665.954 353.478 668.261 356.893 666.785C360.307 665.308 370.473 651.082 381.839 641.284C393.205 631.487 406.77 621.783 419.043 598.943C431.317 576.104 431.963 563.046 440.575 554.464C449.188 545.882 458.262 532.425 469.244 525.335C480.225 518.244 513 505.11 523.473 491.499C533.947 477.887 528.487 461.231 518.414 455.279C508.34 449.327 475.457 447.173 467.552 463.676Z" fill="#263238" stroke="#263238" stroke-linecap="round" stroke-linejoin="round"/>
<path d="M379.671 614.4C377.303 619.384 374.595 624.199 371.565 628.811C364.552 638.547 359.938 643.776 359.938 643.776C359.938 643.776 348.48 644.038 334.915 642.838C321.35 641.638 315.736 639.193 315.567 642.73C315.398 646.268 324.795 655.972 331.47 657.664C338.145 659.356 346.85 661.94 348.88 663.955C350.91 665.969 353.494 668.276 356.908 666.8C360.323 665.323 370.489 651.097 381.855 641.3C387.145 636.686 392.913 632.18 398.773 626.335C391.317 624.444 384.639 620.272 379.671 614.4Z" fill="white" stroke="#263238" stroke-linecap="round" stroke-linejoin="round"/>
<path d="M356.908 666.8C358.744 665.572 360.378 664.068 361.753 662.34C352.525 660.509 347.819 655.88 343.604 654.65C339.757 653.515 336.08 651.87 332.669 649.759L337.283 642.976L334.945 642.776C321.38 641.577 315.767 639.131 315.597 642.669C315.428 646.206 324.825 655.911 331.5 657.603C338.175 659.294 346.88 661.878 348.91 663.893C350.941 665.908 353.571 668.276 356.908 666.8Z" fill="#A26769" stroke="#263238" stroke-linecap="round" stroke-linejoin="round"/>
<path d="M372.857 506.986C374.649 514.695 377.296 522.18 380.747 529.303C386.192 540.192 398.173 551.619 406.893 558.156C415.614 564.692 443.636 589.731 457.524 609.602C459.262 612.093 452.618 620.491 444.451 627.842C436.285 635.194 432.747 637.916 437.1 639.27C441.452 640.623 451.803 640.085 462.154 631.38C472.504 622.675 479.302 616.953 482.563 609.848C484.193 606.31 475.211 601.942 469.767 597.328C464.322 592.714 444.174 562.216 437.915 548.112C431.655 534.009 415.875 513.815 404.171 506.74" fill="#263238"/>
<path d="M372.857 506.986C374.649 514.695 377.296 522.18 380.747 529.303C386.192 540.192 398.173 551.619 406.893 558.156C415.614 564.692 443.636 589.731 457.524 609.602C459.262 612.093 452.618 620.491 444.451 627.842C436.285 635.194 432.747 637.916 437.1 639.27C441.452 640.623 451.803 640.085 462.154 631.38C472.504 622.675 479.302 616.953 482.563 609.848C484.193 606.31 475.211 601.942 469.767 597.328C464.322 592.714 444.174 562.216 437.915 548.112C431.655 534.009 415.875 513.815 404.171 506.74" stroke="#263238" stroke-linecap="round" stroke-linejoin="round"/>
<path d="M482.547 609.879C484.178 606.341 475.196 601.973 469.751 597.359C465.137 593.468 450.203 571.29 441.837 555.925L423.381 572.29C434.9 582.948 448.973 597.267 457.586 609.602C459.324 612.093 452.679 620.491 444.513 627.842C436.346 635.194 432.809 637.916 437.161 639.27C441.514 640.623 451.864 640.085 462.215 631.38C472.566 622.675 479.287 616.953 482.547 609.879Z" fill="white" stroke="#263238" stroke-linecap="round" stroke-linejoin="round"/>
<path d="M476.949 602.65C475.488 604.834 473.581 607.802 471.381 611.509C466.214 620.214 452.064 631.38 450.157 629.473C449.009 628.176 448.047 626.727 447.296 625.166C446.374 626.058 445.42 626.966 444.436 627.842C436.269 635.194 432.732 637.916 437.084 639.27C441.437 640.623 451.787 640.085 462.138 631.38C472.489 622.675 479.287 616.953 482.547 609.848C483.532 607.725 480.609 605.28 476.949 602.65Z" fill="#A26769" stroke="#263238" stroke-linecap="round" stroke-linejoin="round"/>
<path d="M550.865 627.566H458.324V631.918H550.865V627.566Z" fill="white" stroke="#263238" stroke-linecap="round" stroke-linejoin="round"/>
<path d="M466.752 510.801L450.634 665.616C450.617 665.789 450.636 665.965 450.691 666.13C450.746 666.296 450.835 666.448 450.952 666.577C451.07 666.706 451.213 666.809 451.373 666.879C451.533 666.949 451.705 666.985 451.88 666.984C452.178 666.984 452.466 666.877 452.692 666.682C452.918 666.487 453.066 666.218 453.11 665.923L477.18 510.801H466.752Z" fill="white" stroke="#263238" stroke-linecap="round" stroke-linejoin="round"/>
<path d="M540.792 510.801L556.987 665.616C557.006 665.788 556.989 665.963 556.936 666.129C556.883 666.295 556.795 666.447 556.679 666.576C556.563 666.706 556.421 666.809 556.261 666.879C556.102 666.95 555.93 666.985 555.756 666.984C555.457 666.987 555.167 666.881 554.941 666.686C554.715 666.49 554.567 666.219 554.526 665.923L530.456 510.801H540.792Z" fill="white" stroke="#263238" stroke-linecap="round" stroke-linejoin="round"/>
<path d="M511.4 510.801L512.154 665.739C512.15 666.068 512.017 666.382 511.785 666.615C511.552 666.848 511.237 666.98 510.908 666.984C510.59 666.985 510.284 666.861 510.054 666.64C509.825 666.42 509.69 666.118 509.678 665.8L501.019 510.801H511.4Z" fill="white" stroke="#263238" stroke-linecap="round" stroke-linejoin="round"/>
<path d="M545.944 487.392H460.246C456.025 487.392 452.603 490.814 452.603 495.036V504.787C452.603 509.009 456.025 512.431 460.246 512.431H545.944C550.165 512.431 553.588 509.009 553.588 504.787V495.036C553.588 490.814 550.165 487.392 545.944 487.392Z" fill="#A26769"/>
<path opacity="0.2" d="M545.99 487.392H462.2L459.708 492.621C459.708 492.621 537.039 493.975 537.039 498.435C537.039 502.895 538.377 508.724 523.197 508.724C510.893 508.724 469.598 509.309 454.31 509.524C454.921 510.29 455.672 510.932 456.524 511.416L461.015 512.431H545.99C548.029 512.431 549.985 511.621 551.428 510.178C552.87 508.736 553.68 506.78 553.68 504.741V494.99C553.656 492.966 552.835 491.034 551.395 489.612C549.956 488.19 548.014 487.392 545.99 487.392Z" fill="black"/>
<path d="M545.944 487.392H460.246C456.025 487.392 452.603 490.814 452.603 495.036V504.787C452.603 509.009 456.025 512.431 460.246 512.431H545.944C550.165 512.431 553.588 509.009 553.588 504.787V495.036C553.588 490.814 550.165 487.392 545.944 487.392Z" stroke="#263238" stroke-linecap="round" stroke-linejoin="round"/>
<path d="M375.026 516.768C373.119 510.508 365.229 497.989 403.064 471.858C423.058 458.016 466.491 447.358 466.491 447.358L470.566 442.744C470.566 442.744 482.271 455.048 505.141 454.187C528.011 453.325 542.16 443.298 544.883 444.113C547.605 444.928 547.866 452.003 546.79 465.337C545.713 478.672 544.329 485.485 533.717 488.746C523.104 492.006 499.696 493.098 482.824 492.837C474.455 492.813 466.092 492.356 457.77 491.468C457.77 491.468 421.581 514.338 398.988 515.968" fill="#263238"/>
<path d="M375.026 516.768C373.119 510.508 365.229 497.989 403.064 471.858C423.058 458.016 466.491 447.358 466.491 447.358L470.566 442.744C470.566 442.744 482.271 455.048 505.141 454.187C528.011 453.325 542.16 443.298 544.883 444.113C547.605 444.928 547.866 452.003 546.79 465.337C545.713 478.672 544.329 485.485 533.717 488.746C523.104 492.006 499.696 493.098 482.824 492.837C474.455 492.813 466.092 492.356 457.77 491.468C457.77 491.468 421.581 514.338 398.988 515.968" stroke="#263238" stroke-linecap="round" stroke-linejoin="round"/>
<path d="M458.862 366.813C457.217 367.321 407.416 377.148 403.064 376.333C398.711 375.518 387.284 365.721 383.193 365.982C379.102 366.244 370.889 367.628 370.135 369.797C369.382 371.965 372.042 379.332 372.042 379.332C372.042 379.332 369.32 383.408 370.673 385.315C372.027 387.222 379.901 382.593 379.901 382.593C379.901 382.593 388.883 389.129 392.959 387.761C397.035 386.392 401.403 384.777 401.403 384.777C401.403 384.777 465.368 388.576 466.183 388.853C466.998 389.129 474.888 390.76 475.703 379.332C476.519 367.905 468.398 363.814 458.862 366.813Z" fill="white" stroke="#263238" stroke-linecap="round" stroke-linejoin="round"/>
<path d="M372.042 379.332L383.193 370.074" stroke="#263238" stroke-linecap="round" stroke-linejoin="round"/>
<path d="M376.118 375.241L382.101 356.462L384.561 357.001L381.562 370.612L376.118 375.241Z" fill="#263238"/>
<path d="M419.874 386.684C419.874 386.684 353.74 404.909 343.128 403.602C332.516 402.295 329.286 397.604 326.794 397.604C324.303 397.604 317.566 400.88 314.49 400.603C311.414 400.326 307.969 399.511 307.969 401.418C307.969 403.325 310.691 406.324 312.322 406.324C313.952 406.324 320.488 406.047 320.488 406.047C320.488 406.047 307.692 409.862 307.139 412.307C307.021 412.881 307.021 413.472 307.137 414.046C307.253 414.62 307.484 415.164 307.816 415.647C308.148 416.129 308.573 416.54 309.067 416.854C309.561 417.168 310.114 417.379 310.691 417.475C311.992 417.71 313.211 418.277 314.229 419.12C314.781 421.258 315.702 423.283 316.951 425.103C318.581 427.01 323.472 427.825 328.917 426.733C334.361 425.641 343.897 420.751 346.065 419.382C348.234 418.013 414.383 412.03 419.289 410.954C424.196 409.877 430.179 409.862 432.086 406.586C433.993 403.31 419.874 386.684 419.874 386.684Z" fill="white"/>
<path d="M339.898 416.798C328.532 416.798 331.054 405.432 327.271 407.339C323.964 408.985 311.06 410.631 307.4 414.799C307.695 415.487 308.153 416.093 308.734 416.564C309.316 417.036 310.003 417.359 310.737 417.505C312.038 417.741 313.257 418.308 314.275 419.151C314.827 421.289 315.748 423.314 316.997 425.134C318.627 427.041 323.518 427.856 328.963 426.764C334.407 425.672 343.943 420.781 346.111 419.413C348.28 418.044 414.429 412.061 419.336 410.984C423.288 410.092 427.964 409.923 430.609 408.17L432.147 406.632L425.118 399.772C425.118 399.772 351.31 416.798 339.898 416.798Z" fill="#A26769"/>
<path opacity="0.5" d="M339.898 416.798C328.532 416.798 331.054 405.432 327.271 407.339C323.964 408.985 311.06 410.631 307.4 414.799C307.695 415.487 308.153 416.093 308.734 416.564C309.316 417.036 310.003 417.359 310.737 417.505C312.038 417.741 313.257 418.308 314.275 419.151C314.827 421.289 315.748 423.314 316.997 425.134C318.627 427.041 323.518 427.856 328.963 426.764C334.407 425.672 343.943 420.781 346.111 419.413C348.28 418.044 414.429 412.061 419.336 410.984C423.288 410.092 427.964 409.923 430.609 408.17L432.147 406.632L425.118 399.772C425.118 399.772 351.31 416.798 339.898 416.798Z" fill="white"/>
<path d="M419.874 386.684C419.874 386.684 353.74 404.909 343.128 403.602C332.516 402.295 329.286 397.604 326.794 397.604C324.303 397.604 317.566 400.88 314.49 400.603C311.414 400.326 307.969 399.511 307.969 401.418C307.969 403.325 310.691 406.324 312.322 406.324C313.952 406.324 320.488 406.047 320.488 406.047C320.488 406.047 307.692 409.862 307.139 412.307C307.021 412.881 307.021 413.472 307.137 414.046C307.253 414.62 307.484 415.164 307.816 415.647C308.148 416.129 308.573 416.54 309.067 416.854C309.561 417.168 310.114 417.379 310.691 417.475C311.992 417.71 313.211 418.277 314.229 419.12C314.781 421.258 315.702 423.283 316.951 425.103C318.581 427.01 323.472 427.825 328.917 426.733C334.361 425.641 343.897 420.751 346.065 419.382C348.234 418.013 414.383 412.03 419.289 410.954C424.196 409.877 430.179 409.862 432.086 406.586C433.993 403.31 419.874 386.684 419.874 386.684Z" stroke="#263238" stroke-linecap="round" stroke-linejoin="round"/>
<path d="M475.734 319.996C475.734 319.996 469.751 336.314 462.138 347.204C454.525 358.093 451.249 369.535 456.14 381.778C457.442 385.281 459.512 388.449 462.197 391.049C464.882 393.649 468.115 395.616 471.659 396.804C471.659 396.804 467.844 432.732 468.936 442.267C470.028 451.803 484.716 462.953 506.771 463.799C528.826 464.645 547.866 456.724 547.866 449.096C547.866 441.468 532.363 400.926 532.363 392.482C532.363 384.039 533.717 357.647 526.365 334.038C519.014 310.43 493.16 302.571 475.734 319.996Z" fill="#A26769"/>
<path opacity="0.2" d="M526.365 333.869C522.412 321.119 513.077 313.029 502.588 310.999C497.528 312.122 483.701 315.352 480.256 316.167C478.645 317.315 477.132 318.596 475.734 319.996C475.734 319.996 469.751 336.314 462.138 347.204C457.017 354.509 453.879 362.061 453.833 369.92C473.919 374.672 504.587 382.408 501.511 383.27C497.097 384.531 478.164 374.426 483.839 380.747C489.515 387.068 519.829 416.121 510.985 413.568C502.142 411.015 482.578 390.206 487.638 400.311C492.698 410.415 506.571 426.826 502.157 426.826C497.743 426.826 474.381 403.464 482.578 417.352C490.776 431.24 528.026 453.341 516.03 456.494C509.109 458.309 494.421 457.832 485.9 459.262C492.516 462.008 499.58 463.515 506.74 463.707C528.78 464.522 547.836 456.632 547.836 449.004C547.836 441.375 532.333 400.834 532.333 392.39C532.333 383.946 533.686 357.554 526.365 333.869Z" fill="black"/>
<path d="M475.734 319.996C475.734 319.996 469.751 336.314 462.138 347.204C454.525 358.093 451.249 369.535 456.14 381.778C457.442 385.281 459.512 388.449 462.197 391.049C464.882 393.649 468.115 395.616 471.659 396.804C471.659 396.804 467.844 432.732 468.936 442.267C470.028 451.803 484.716 462.953 506.771 463.799C528.826 464.645 547.866 456.724 547.866 449.096C547.866 441.468 532.363 400.926 532.363 392.482C532.363 384.039 533.717 357.647 526.365 334.038C519.014 310.43 493.16 302.571 475.734 319.996Z" stroke="#263238" stroke-linecap="round" stroke-linejoin="round"/>
<path d="M479.087 386.038C479.087 386.038 499.081 418.336 528.303 427.564" stroke="#263238" stroke-linecap="round" stroke-linejoin="round"/>
<path d="M476.78 391.421C476.78 391.421 484.47 416.798 504.464 429.102" stroke="#263238" stroke-linecap="round" stroke-linejoin="round"/>
<path d="M480.902 371.089C480.902 371.089 498.973 363.214 506.387 358.123" stroke="#263238" stroke-linecap="round" stroke-linejoin="round"/>
<path d="M473.489 372.95C473.489 372.95 479.979 374.334 496.651 372.95" stroke="#263238" stroke-linecap="round" stroke-linejoin="round"/>
<path d="M474.104 324.072C469.906 326.748 466.066 329.947 462.676 333.592C456.417 340.129 426.195 385.884 426.195 385.884C426.195 385.884 435.177 404.679 437.899 405.217C440.622 405.755 487.992 365.229 492.345 360.307C496.697 355.386 499.419 346.465 498.066 342.605" fill="#A26769"/>
<path opacity="0.2" d="M492.345 360.276C496.697 355.37 499.419 346.435 498.066 342.574L487.3 334.269L483.855 337.822C483.855 337.822 483.624 351.756 471.228 359.277C458.832 366.798 453.556 366.859 451.665 376.318C449.773 385.777 456.079 388.314 448.512 389.575C440.945 390.837 435.885 391.467 435.885 396.527C435.934 399.033 436.124 401.533 436.454 404.017C436.814 404.531 437.309 404.936 437.884 405.186C440.622 405.724 487.992 365.167 492.345 360.276Z" fill="black"/>
<path d="M474.104 324.072C469.906 326.748 466.066 329.947 462.676 333.592C456.417 340.129 426.195 385.884 426.195 385.884C426.195 385.884 435.177 404.679 437.899 405.217C440.622 405.755 487.992 365.229 492.345 360.307C496.697 355.386 499.419 346.465 498.066 342.605" stroke="#263238" stroke-linecap="round" stroke-linejoin="round"/>
<path d="M415.86 388.576C415.86 388.576 424.303 408.724 426.195 410.907C428.087 413.091 438.176 411.723 441.437 409.262C444.697 406.801 444.159 401.925 444.159 401.925C444.159 401.925 431.64 379.871 430.317 378.855C428.994 377.84 428.41 380.224 422.627 382.131C416.844 384.039 414.768 384.777 415.86 388.576Z" fill="white" stroke="#263238" stroke-linecap="round" stroke-linejoin="round"/>
<path d="M429.471 268.55C429.471 268.55 428.917 276.44 430.286 278.886C431.655 281.331 435.454 283.792 435.454 287.052C435.454 290.313 432.732 294.742 433.547 297.126C434.362 299.51 438.73 299.848 438.73 299.848C438.73 299.848 446.881 309.922 449.342 313.46C451.803 316.997 452.879 315.628 456.694 314.552C460.508 313.475 468.659 306.385 473.289 300.94C477.918 295.496 470.213 278.886 460.231 267.735C450.249 256.585 435.177 256.846 431.917 260.045C428.656 263.244 429.471 268.55 429.471 268.55Z" fill="white"/>
<path d="M451.049 260.922C449.788 267.074 448.527 277.64 452.311 284.791C458.001 295.557 462.415 301.202 459.262 310.045C458.693 311.583 458.109 312.998 457.54 314.229C461.6 312.491 468.983 306 473.289 300.94C477.903 295.496 470.213 278.886 460.231 267.735C457.656 264.874 454.534 262.558 451.049 260.922Z" fill="#A26769"/>
<path opacity="0.5" d="M451.049 260.922C449.788 267.074 448.527 277.64 452.311 284.791C458.001 295.557 462.415 301.202 459.262 310.045C458.693 311.583 458.109 312.998 457.54 314.229C461.6 312.491 468.983 306 473.289 300.94C477.903 295.496 470.213 278.886 460.231 267.735C457.656 264.874 454.534 262.558 451.049 260.922Z" fill="white"/>
<path d="M435.454 280.254C435.454 280.254 435.454 276.163 440.36 278.886" stroke="#263238" stroke-linecap="round" stroke-linejoin="round"/>
<path d="M438.945 284.038L439.591 287.806C439.591 287.806 442.575 288.836 444.774 284.945" stroke="#263238" stroke-linecap="round" stroke-linejoin="round"/>
<path d="M429.471 268.55C429.471 268.55 428.917 276.44 430.286 278.886C431.655 281.331 435.454 283.792 435.454 287.052C435.454 290.313 432.732 294.742 433.547 297.126C434.362 299.51 438.73 299.848 438.73 299.848C438.73 299.848 446.881 309.922 449.342 313.46C451.803 316.997 452.879 315.628 456.694 314.552C460.508 313.475 468.659 306.385 473.289 300.94C477.918 295.496 470.213 278.886 460.231 267.735C450.249 256.585 435.177 256.846 431.917 260.045C428.656 263.244 429.471 268.55 429.471 268.55Z" stroke="#263238" stroke-linecap="round" stroke-linejoin="round"/>
<path d="M421.028 256.569V257.661L420.535 270.996L435.223 272.903L438.499 267.181V273.441C443.031 273.062 447.59 273.714 451.834 275.348C458.908 278.07 467.89 297.403 467.352 305.293C466.814 313.183 460 314.813 460.816 326.825C461.631 338.837 479.856 350.741 493.698 343.128C507.54 335.515 509.77 325.702 515.476 327.609C521.182 329.516 529.902 341.221 535.347 324.61C540.792 308 538.346 297.403 525.55 283.792C512.754 270.18 502.695 271.272 501.05 260.383C499.404 249.494 495.882 234.791 484.132 226.547C472.381 218.304 455.556 217.842 441.068 224.102C426.58 230.362 421.028 249.494 421.028 256.569Z" fill="#263238"/>
<path d="M429.21 262.813C429.113 262.828 429.014 262.828 428.917 262.813C427.379 262.46 427.133 259.737 426.98 253.124C426.98 251.401 426.903 249.633 426.795 248.218C426.795 248.079 426.795 247.956 426.795 247.864C425.488 249.402 422.719 255.939 420.643 261.706L419.197 261.183C424.765 245.68 426.58 245.911 427.164 246.003C428.225 246.142 428.333 247.541 428.379 248.064C428.487 249.51 428.533 251.309 428.564 253.032C428.564 255.769 428.733 260.26 429.302 261.199C430.046 260.434 430.631 259.529 431.024 258.538C432.563 255.339 434.101 253.924 435.515 253.924C437.33 253.924 438.284 256.415 438.961 258.184C439.124 258.621 439.314 259.047 439.53 259.461C440.206 259.645 442.606 257.2 443.882 255.877L445.005 254.739C445.263 254.403 445.593 254.128 445.971 253.937C446.349 253.745 446.765 253.641 447.189 253.632C448.05 253.77 448.465 254.57 448.911 255.4C449.319 256.298 449.911 257.1 450.649 257.753C451.142 258.138 451.388 258.076 451.495 258.061C452.603 257.784 453.941 254.8 455.494 251.355C455.848 250.54 456.232 249.694 456.648 248.802C457.063 247.91 457.847 246.418 458.985 246.526C460.416 246.634 461.077 248.879 462.061 252.278C462.662 254.992 463.701 257.589 465.137 259.968C465.491 260.399 465.968 260.891 466.414 260.845C467.614 260.645 468.936 257.092 469.736 254.97C470.09 253.909 470.533 252.88 471.059 251.894C471.175 251.645 471.36 251.436 471.592 251.289C471.823 251.141 472.092 251.063 472.366 251.063C473.504 251.063 474.288 252.601 475.35 254.693C476.149 256.231 477.241 258.399 478.149 258.753C478.333 258.83 478.395 258.753 478.441 258.753C479.041 258.446 479.548 256.461 479.979 254.877C480.342 253.095 480.975 251.378 481.855 249.787C482.082 249.413 482.386 249.093 482.747 248.846C483.108 248.599 483.517 248.432 483.947 248.356C485.962 248.033 488.207 249.771 489.699 250.94C489.622 250.156 489.453 249.079 489.315 248.141C488.546 243.019 488.33 240.543 489.607 239.836C490.207 239.513 490.914 239.697 491.714 240.405C493.098 241.714 494.412 243.095 495.651 244.542C498.466 247.71 502.742 252.478 504.464 252.017C504.941 251.894 505.202 251.155 505.325 250.571L506.863 250.879C506.54 252.417 505.879 253.247 504.895 253.509C502.419 254.154 499.05 250.632 494.529 245.572C493.303 244.133 491.998 242.762 490.622 241.466C490.511 241.359 490.387 241.266 490.253 241.189C490.147 243.411 490.317 245.638 490.76 247.818C491.314 251.432 491.422 252.432 490.76 252.847C490.607 252.948 490.428 253.001 490.245 253.001C490.062 253.001 489.883 252.948 489.73 252.847C489.469 252.663 489.13 252.417 488.761 252.109C487.546 251.171 485.516 249.617 484.147 249.817C483.926 249.858 483.716 249.946 483.533 250.076C483.349 250.207 483.197 250.375 483.086 250.571C482.311 252.02 481.751 253.574 481.425 255.185C480.825 257.461 480.317 259.43 479.102 260.045C478.862 260.158 478.599 260.216 478.333 260.216C478.068 260.216 477.805 260.158 477.564 260.045C476.119 259.476 475.027 257.323 473.966 255.262C473.546 254.305 473.031 253.393 472.428 252.54C471.95 253.464 471.549 254.426 471.228 255.416C470.09 258.492 468.798 261.937 466.691 262.26C466.15 262.295 465.609 262.179 465.131 261.923C464.653 261.668 464.255 261.284 463.984 260.814C462.417 258.3 461.288 255.539 460.646 252.647C460.308 251.027 459.716 249.47 458.893 248.033C458.586 248.467 458.323 248.931 458.109 249.417C457.693 250.294 457.309 251.155 456.955 251.955C455.033 256.246 453.756 259.076 451.911 259.522C451.527 259.599 451.131 259.585 450.755 259.481C450.378 259.377 450.031 259.185 449.742 258.922C448.841 258.141 448.117 257.176 447.62 256.092C447.461 255.742 447.254 255.416 447.004 255.123C447.004 255.123 446.758 255.123 446.158 255.785L445.051 256.923C442.498 259.537 440.868 261.106 439.468 260.999C439.235 260.976 439.009 260.901 438.809 260.779C438.609 260.656 438.44 260.489 438.315 260.291C438.025 259.803 437.783 259.288 437.592 258.753C437.161 257.615 436.331 255.508 435.5 255.477C435.254 255.477 434.224 255.708 432.424 259.23C431.101 261.737 430.163 262.813 429.21 262.813Z" fill="#575757"/>
<path d="M459.862 324.61C459.862 324.61 463.676 310.415 467.552 314.921C471.428 319.427 474.119 320.811 474.473 316.997C474.827 313.183 474.473 307.646 478.287 312.845C482.102 318.043 491.437 323.226 492.129 315.259C492.821 307.292 493.867 296.557 498.374 302.109C502.88 307.662 506.679 311.799 507.033 308.677C507.386 305.554 510.493 303.14 511.877 306.6C513.261 310.061 514.307 313.537 515.338 305.57C516.368 297.603 511.523 288.944 516.722 291.02C521.92 293.097 524.412 300.018 524.412 296.219C524.412 292.42 518.168 287.898 523.72 289.282C529.272 290.667 529.949 294.142 530.641 292.066C531.333 289.99 527.565 285.13 532.379 285.13" stroke="#575757" stroke-miterlimit="10"/>
<path d="M421.028 256.569V257.661L420.535 270.996L435.223 272.903L438.499 267.181V273.441C443.031 273.062 447.59 273.714 451.834 275.348C458.908 278.07 467.89 297.403 467.352 305.293C466.814 313.183 460 314.813 460.816 326.825C461.631 338.837 479.856 350.741 493.698 343.128C507.54 335.515 509.77 325.702 515.476 327.609C521.182 329.516 529.902 341.221 535.347 324.61C540.792 308 538.346 297.403 525.55 283.792C512.754 270.18 502.695 271.272 501.05 260.383C499.404 249.494 495.882 234.791 484.132 226.547C472.381 218.304 455.556 217.842 441.068 224.102C426.58 230.362 421.028 249.494 421.028 256.569Z" stroke="#263238" stroke-linecap="round" stroke-linejoin="round"/>
<path d="M103.4 668.046H666.215" stroke="#263238" stroke-miterlimit="10"/>
</svg>
